<svg viewBox="70 45 250 200" fill="none" xmlns="http://www.w3.org/2000/svg">
<g clip-path="url(#clip0_1433_20665)">
<path d="M281.271 81.7734L255.042 47.7109C251.208 50.1068 245.167 52.4609 239.083 52.4609C233 52.4609 228.625 51.8984 223.5 50.8776C217.146 49.6068 209.937 48.1901 198.5 48.1901C187.062 48.1901 179.854 49.6276 173.5 50.8776C168.354 51.8984 164 52.4609 157.917 52.4609C151.833 52.4609 145.792 50.1068 141.958 47.7109L115.688 81.7734C118.938 84.8984 124.854 91.9401 124.854 101.94C124.854 108.753 123.854 114.919 122.708 122.065C121.146 131.669 119.396 142.565 119.396 158.773C119.396 186.565 137.125 210.523 165.646 221.273C186.292 229.044 194.917 234.773 198.479 237.919C202.042 234.753 210.667 229.044 231.313 221.273C259.854 210.523 277.563 186.586 277.563 158.773C277.563 142.565 275.792 131.669 274.25 122.065C273.083 114.919 272.104 108.753 272.104 101.94C272.104 91.9401 278.021 84.8776 281.271 81.7734Z" fill="white"/>
<path d="M255.044 47.7135L281.273 81.776C278.023 84.901 272.107 91.9427 272.107 101.943C272.107 108.755 273.107 114.922 274.253 122.068C275.815 131.672 277.565 142.568 277.565 158.776C277.565 186.568 259.836 210.526 231.315 221.276C210.669 229.047 202.044 234.776 198.482 237.922C194.919 234.755 186.294 229.047 165.648 221.276C137.107 210.526 119.398 186.589 119.398 158.776C119.398 142.568 121.169 131.672 122.711 122.068C123.878 114.922 124.857 108.755 124.857 101.943C124.857 91.9635 118.94 84.901 115.69 81.776L141.919 47.7135C145.753 50.1094 151.794 52.4635 157.878 52.4635C163.961 52.4635 168.336 51.901 173.461 50.8802C179.815 49.6094 187.023 48.1927 198.461 48.1927C209.898 48.1927 217.107 49.6302 223.461 50.8802C228.607 51.901 232.961 52.4635 239.044 52.4635C245.169 52.4635 251.19 50.1094 255.044 47.7135ZM255.523 44.9844L253.94 45.9635C250.503 48.1094 244.794 50.401 239.065 50.401C232.878 50.401 228.669 49.8177 223.878 48.8594C217.419 47.5885 210.128 46.1302 198.482 46.1302C186.836 46.1302 179.523 47.5885 173.086 48.8594C168.294 49.8177 164.086 50.401 157.898 50.401C152.169 50.401 146.461 48.1094 143.023 45.9635L141.44 44.9844L140.315 46.4635L114.086 80.526L112.961 81.9844L114.273 83.2552C117.461 86.3177 122.815 92.8177 122.815 101.943C122.815 108.589 121.836 114.672 120.69 121.734C119.128 131.422 117.336 142.401 117.336 158.776C117.336 187.443 135.565 212.13 164.919 223.193C185.878 231.089 194.086 236.776 197.128 239.464L198.482 240.672L199.836 239.464C202.857 236.776 211.065 231.089 232.044 223.193C261.398 212.13 279.628 187.464 279.628 158.776C279.628 142.401 277.857 131.422 276.273 121.734C275.128 114.672 274.148 108.568 274.148 101.943C274.148 92.8177 279.503 86.3177 282.69 83.2552L284.003 81.9844L282.878 80.526L256.669 46.4635L255.523 44.9844Z" fill="#000F46"/>
<path d="M266.794 101.609C266.794 92.6094 270.69 85.6719 274.336 81.151L253.544 54.1719C249.628 56.2552 244.753 57.4427 239.086 57.4427C232.482 57.4427 227.628 56.7969 222.461 55.7552C216.336 54.5469 209.378 53.1719 198.461 53.1719C187.544 53.1719 180.586 54.5469 174.461 55.7552C169.294 56.776 164.44 57.4427 157.836 57.4427C152.169 57.4427 147.294 56.2552 143.378 54.1719L122.586 81.151C126.232 85.6719 130.128 92.6094 130.128 101.609C130.128 108.839 129.107 115.214 127.898 122.589C126.378 132.005 124.648 142.672 124.648 158.443C124.648 183.964 141.044 206.005 167.461 215.964C183.857 222.13 193.19 227.193 198.461 230.859C203.732 227.193 213.065 222.13 229.461 215.964C255.878 206.026 272.273 183.984 272.273 158.443C272.273 142.651 270.544 131.984 269.023 122.589C267.815 115.214 266.794 108.839 266.794 101.609Z" fill="#000F46"/>
<path d="M138.544 62.3568C128.232 60.0026 123.461 58.5234 123.461 58.5234C123.461 64.7318 126.648 67.8151 126.648 67.8151C126.648 67.8151 127.336 70.1068 129.294 73.5234" fill="#000F46"/>
<path d="M266.922 94.526C271.568 91.9219 272.797 90.8594 274.422 86.1719C274.422 86.1719 278.089 82.9844 279.63 80.401C283.839 75.9427 285.13 70.4635 285.172 70.4219C288.443 66.5469 289.505 61.1927 289.505 61.1927C292.797 56.026 293.214 51.4219 293.214 51.4219C293.214 51.4219 285.609 53.9635 269.401 59.1302C267.047 59.8802 258.359 62.8802 258.359 62.8802" fill="#000F46"/>
<path d="M144.086 116.07L145.69 120.133L149.961 118.883L147.878 122.654L151.523 125.466L147.148 125.841L147.357 130.279L144.169 127.404L140.732 130.279L141.044 126.049L136.878 125.112L140.586 122.508L138.544 118.695L142.461 120.091L144.086 116.07ZM167.565 126.57L163.648 125.279L165.669 129.029L161.961 131.591L166.253 132.529L165.836 136.82L169.232 133.945L172.523 136.82L172.253 132.383L176.648 132.008L173.065 129.258L175.086 125.445L170.815 126.591L169.253 122.633L167.565 126.57ZM137.815 152.174L133.898 150.883L135.878 154.591L132.232 157.154L136.398 158.091L136.044 162.362L139.482 159.445L142.669 162.362L142.461 157.883L146.836 157.508L143.232 154.695L145.273 150.987L140.982 152.174L139.419 148.154L137.815 152.174ZM167.711 153.737L163.961 153.799L167.086 156.154L165.94 159.966L169.107 157.674L172.294 159.966L171.107 156.154L174.232 153.758H170.378L169.128 150.049L167.711 153.737ZM167.398 180.029L163.482 178.674L165.461 182.424L161.753 184.987L165.982 185.924L165.669 190.195L169.065 187.279L172.294 190.258L171.982 185.883L176.419 185.362L172.815 182.549L174.857 178.841L170.628 180.049L169.065 175.987L167.398 180.029ZM205.565 190.216C207.94 189.029 208.565 187.883 209.336 186.404L209.398 186.279C209.565 185.945 209.711 185.612 209.857 185.258C210.107 184.654 210.398 183.987 210.919 183.174C210.919 183.154 210.919 183.133 210.919 183.133C198.086 168.549 189.044 151.466 185.919 145.508C185.898 145.466 185.836 145.487 185.836 145.529C185.648 150.695 185.753 161.445 189.378 168.549C191.419 172.529 191.753 172.924 197.211 179.633L198.065 180.695L198.669 181.424C198.69 181.466 198.669 181.508 198.628 181.487C197.94 181.154 196.857 180.445 196.857 180.445C195.253 179.529 191.482 176.57 188.169 171.779C188.148 171.737 188.086 171.758 188.086 171.799C187.919 178.862 191.544 185.508 193.961 188.112C196.294 190.633 199.628 191.008 201.419 191.008C203.023 191.008 204.565 190.695 205.565 190.216ZM228.919 194.674C232.128 194.487 236.086 193.237 237.503 191.195C237.94 190.654 238.648 189.904 240.294 188.966C241.294 188.445 242.253 188.112 243.107 187.82C245.628 186.966 247.294 186.404 247.273 181.799C229.523 171.174 222.315 160.487 222.794 160.424C222.794 160.424 225.878 163.549 230.357 167.174C234.273 170.341 242.544 177.258 249.773 180.487C250.273 180.737 249.794 187.487 245.711 189.32C245.357 189.487 244.836 189.695 244.211 189.924C242.086 190.716 238.878 191.904 239.211 194.07C239.315 194.258 240.003 194.529 241.44 194.529C244.628 194.529 248.773 193.258 250.357 190.445C250.982 189.32 251.44 188.299 251.857 187.404C253.148 184.591 253.94 182.862 257.607 182.07C256.065 180.424 247.961 171.779 244.211 167.758C240.253 163.508 237.378 158.716 237.065 158.195C237.065 158.174 236.419 157.154 235.461 156.508C231.44 153.383 227.086 152.529 223.232 151.779C219.003 151.029 216.898 150.237 215.461 148.862C213.044 146.612 213.44 143.008 213.607 141.654C213.607 141.57 213.628 141.487 213.628 141.404C213.398 141.654 213.023 142.258 212.857 142.508C212.232 143.529 211.273 145.049 209.503 145.049C209.315 145.049 209.107 145.029 208.898 144.987C207.503 144.737 206.523 144.049 205.753 141.341C205.544 140.633 205.148 140.404 204.982 140.383C204.753 140.383 204.648 140.466 204.586 140.529C203.961 141.195 204.107 143.633 204.336 144.716C204.398 145.195 204.253 145.466 204.128 145.612C203.961 145.82 203.69 145.924 203.378 145.924C203.003 145.924 202.669 145.758 202.523 145.508C202.065 144.841 201.628 144.112 201.253 143.383C200.961 144.487 200.398 145.674 199.107 145.695C198.169 145.695 197.336 144.945 196.44 144.154C195.44 143.258 194.607 142.57 193.898 142.57C193.669 142.57 193.461 142.633 193.232 142.779C192.857 143.029 192.461 143.154 192.065 143.154C191.565 143.154 191.128 142.945 190.794 142.549C189.586 140.987 191.128 138.966 191.732 138.299C191.336 138.029 190.461 137.758 189.378 137.758C188.565 137.758 186.607 137.924 185.753 139.383C185.482 140.279 186.003 141.299 186.419 142.133C187.982 145.57 200.315 167.612 212.982 181.591C213.794 182.529 213.878 183.362 213.273 184.174C211.565 186.57 210.982 188.466 211.544 189.799C212.253 191.487 214.523 191.862 214.544 191.862C215.169 191.987 215.753 192.029 216.253 192.029C218.753 192.029 219.565 190.674 220.503 189.112C221.711 186.945 222.898 186.487 223.69 186.487C224.128 186.487 224.44 186.612 224.565 186.674L224.607 186.695C224.898 186.841 225.273 187.279 225.398 187.841C225.503 188.279 225.523 188.987 224.961 189.779L224.94 189.799C224.419 190.383 223.482 190.82 222.669 191.216C221.857 191.612 220.94 192.049 220.982 192.383C221.107 192.841 224.253 194.633 228.482 194.633C228.648 194.674 228.773 194.674 228.919 194.674ZM207.086 154.362C209.315 157.612 215.273 166.279 225.482 177.904C225.482 177.904 226.19 178.862 225.169 180.799L224.711 181.487L224.378 180.758C224.378 180.758 224.065 180.049 223.398 179.299C210.919 164.987 205.565 152.695 205.628 152.654C205.628 152.674 205.898 152.654 207.086 154.362ZM237.773 155.549C238.294 155.174 238.565 154.174 238.565 152.529C238.565 151.633 238.565 150.779 239.107 150.07C239.628 149.383 240.336 148.987 241.19 148.904C240.273 148.362 239.19 147.758 237.961 147.091C234.898 145.424 230.378 142.966 224.898 138.924C226.211 140.695 227.898 142.466 229.815 144.133L230.503 144.737C230.461 144.799 229.711 144.549 229.711 144.549C229.648 144.529 228.19 144.029 227.273 143.445C227.253 143.424 227.211 143.404 227.169 143.383C224.503 141.862 221.961 139.404 219.982 136.404C219.961 136.362 217.357 132.112 214.19 124.924C213.253 122.779 208.169 114.154 206.211 112.32C203.148 111.695 199.232 111.654 198.107 111.654C197.503 111.654 196.982 111.674 196.648 111.695C194.315 111.841 192.565 112.237 191.648 112.591C187.648 123.674 186.357 131.466 186.003 136.07L185.961 136.445C186.982 135.987 188.128 135.737 189.294 135.737C191.44 135.737 193.357 136.57 193.753 137.695C194.065 138.716 193.607 139.258 193.148 139.779C192.878 140.112 192.586 140.424 192.461 140.904C192.919 140.674 193.398 140.549 193.898 140.549C195.461 140.549 196.794 141.737 197.773 142.612L197.794 142.633C198.565 143.341 198.898 143.549 199.044 143.633C199.19 143.404 199.565 142.508 199.773 139.404C199.773 139.383 199.773 139.362 199.773 139.362C198.148 129.779 203.148 123.008 203.148 123.008C203.148 123.008 199.898 134.008 202.315 140.737C202.732 139.07 203.711 138.529 204.523 138.404C204.648 138.383 204.773 138.362 204.898 138.362C205.94 138.362 207.211 139.112 207.69 140.779C208.273 142.82 208.669 142.883 209.253 143.008C209.336 143.029 209.419 143.029 209.482 143.029C210.065 143.029 210.44 142.549 211.148 141.424C211.732 140.487 212.461 139.299 213.773 139.299C213.919 139.299 214.086 139.32 214.253 139.362C214.898 139.508 215.773 140.174 215.607 141.424C214.753 148.049 217.711 148.633 223.607 149.779C226.857 150.424 230.878 151.195 234.732 153.549C234.294 152.654 233.565 151.841 233.044 151.279C232.815 151.029 232.648 150.841 232.523 150.674L232.253 150.299L232.711 150.341C232.753 150.341 236.628 150.716 237.523 155.612C237.523 155.612 237.523 155.612 237.544 155.612C237.586 155.674 237.669 155.633 237.773 155.549ZM241.94 150.737C241.732 150.737 241.523 150.758 241.294 150.82C240.523 151.008 240.461 151.612 240.44 152.716C240.419 153.529 240.398 154.508 239.878 155.424C242.19 154.924 243.648 153.737 243.628 152.32C243.607 151.799 243.378 151.341 243.003 151.049C242.732 150.841 242.357 150.737 241.94 150.737ZM214.461 120.695C214.503 120.758 214.586 120.758 214.648 120.695C216.315 118.695 215.169 114.445 214.815 112.841C217.169 114.258 220.398 115.258 222.169 115.424C222.378 113.404 221.857 111.341 220.982 108.924C223.628 110.841 227.565 111.987 228.898 111.924C229.19 109.799 227.628 105.799 227.523 105.237C228.523 105.633 230.878 106.966 232.857 107.195C233.378 105.904 233.711 103.799 233.523 101.758C233.523 101.758 229.857 102.466 228.023 102.466C227.523 102.466 227.065 102.445 226.669 102.404C225.648 102.32 223.773 101.966 221.919 101.57C220.857 101.341 219.773 101.154 218.836 100.987C218.461 100.924 218.086 100.862 217.753 100.779C216.711 100.591 215.836 100.466 214.482 100.341C213.982 100.299 213.023 100.258 212.586 100.258C212.565 100.258 212.565 100.258 212.565 100.279C211.919 104.299 209.565 107.862 208.294 109.799C208.107 110.091 207.94 110.341 207.815 110.529V110.549C210.294 114.029 213.836 119.716 214.461 120.695ZM170.461 95.5495C169.544 94.737 169.211 93.7786 169.503 92.8411C167.815 92.6328 164.898 92.0911 162.565 90.7995C161.544 91.0286 158.253 91.6953 154.128 91.6953C153.211 91.6953 152.253 91.6745 151.232 91.612C151.315 91.6745 151.398 91.7161 151.482 91.7786C152.357 92.3411 153.232 92.9245 154.107 93.0911C154.461 93.0286 155.294 92.9661 157.398 92.8203C157.711 92.7995 158.044 92.7786 158.357 92.7786C160.565 92.7786 162.982 93.5495 165.732 95.1536C165.961 95.237 168.211 96.1328 169.398 96.737C169.586 96.487 169.961 96.0703 170.461 95.5495ZM266.669 92.4453C268.544 91.9453 270.669 90.0286 271.857 87.862C269.482 89.2578 267.523 89.8203 265.253 89.8203C264.815 89.8203 264.336 89.7995 263.815 89.7578C263.482 90.2995 263.107 91.3203 261.273 92.2161C263.128 92.9661 265.732 92.6953 266.669 92.4453ZM236.607 92.9036C237.565 92.7995 238.419 92.6953 239.169 92.612C244.044 92.0495 244.794 91.9661 245.544 91.487C245.648 91.4245 245.815 91.2578 246.003 91.0495C246.607 90.4453 247.503 89.5495 248.523 89.4245C248.669 89.4036 248.815 89.3828 248.94 89.362C249.065 89.3411 249.211 89.3203 249.336 89.2995C249.773 89.237 250.148 89.1536 250.482 88.9036C251.336 88.2995 252.128 87.737 252.919 87.6953C252.94 87.6953 252.961 87.6953 252.961 87.6953C253.586 87.6953 253.857 88.2995 253.919 88.5078C254.086 88.8203 254.065 89.5703 254.023 90.112C254.232 90.0703 254.503 89.987 254.753 89.8828C254.815 89.862 254.898 89.8203 255.003 89.7786C255.315 89.6536 255.753 89.4661 256.148 89.3411C256.419 89.2578 256.628 89.2161 256.836 89.2161C257.294 89.2161 257.565 89.4453 257.836 89.737C258.273 90.1953 258.523 90.8411 258.586 91.3203C259.919 90.9453 261.128 90.0495 261.648 89.4036C259.648 88.8411 257.065 87.612 255.503 85.6745C254.836 84.8411 254.586 84.0286 254.523 83.4245C247.398 86.1328 235.232 88.8411 231.273 89.6745C231.398 90.1328 231.398 90.5911 231.273 91.0286C231.169 91.4036 230.982 91.7578 230.69 92.0911C231.128 92.4661 232.086 93.4036 232.086 93.4036C232.086 93.4036 236.023 92.9661 236.607 92.9036ZM173.148 90.7578C172.982 90.4453 172.857 90.0286 172.836 89.6536C168.169 86.8411 162.836 85.987 159.815 85.7161C160.69 86.9661 161.753 87.9453 163.086 88.7786C166.148 90.6745 171.003 90.9661 171.669 91.0078C171.94 90.9453 172.523 90.8411 173.148 90.7578ZM160.253 89.1953C159.107 88.2161 158.211 87.0911 157.419 85.6953C155.94 85.862 154.482 85.9661 153.044 85.9661C148.523 85.9661 144.107 85.0703 139.586 83.237C141.836 85.5286 145.753 88.612 149.086 89.3203C150.69 89.5703 152.378 89.6953 154.107 89.6953C156.607 89.6953 158.773 89.4453 160.253 89.1953ZM255.128 81.0286C255.19 80.9245 255.544 80.4661 256.128 80.0286C256.44 79.7786 256.773 79.5703 257.128 79.4245L257.44 79.2995C258.711 78.737 260.044 78.1745 260.815 77.5911L261.044 77.4245C261.628 77.0078 262.169 76.5911 262.586 75.7995C260.44 75.6953 258.586 75.1536 257.357 74.6745C244.336 77.5078 231.919 82.4245 227.961 84.0703C228.836 84.8828 229.023 85.9661 228.544 87.362C229.128 87.4036 229.648 87.5703 230.107 87.8828C232.211 87.4245 247.794 84.112 255.128 81.0286ZM271.773 85.487C273.336 84.3411 275.419 82.7995 277.19 80.4661C272.69 82.3411 269.169 82.737 264.398 82.7786C264.273 82.7786 264.169 82.7786 264.065 82.7786C260.648 82.7786 258.211 82.237 257.023 81.9036C256.898 82.0286 256.815 82.1328 256.773 82.1745C256.711 82.2786 256.19 83.1953 257.148 84.362C258.753 86.3411 261.836 87.487 263.523 87.6745C264.044 87.737 264.607 87.7786 265.211 87.7786C266.628 87.7995 268.857 87.5703 271.773 85.487ZM156.461 83.7786C155.982 82.6745 155.607 81.5495 155.232 80.4453L155.169 80.2995C154.253 77.612 151.919 76.862 151.669 76.7995C140.565 74.4661 132.669 70.8203 128.711 68.0286C130.107 71.2578 131.503 74.1536 133.753 76.612C136.461 79.5911 140.107 81.612 145.19 82.9661H145.232C146.794 83.362 148.336 83.6328 149.815 83.7578C150.961 83.862 152.107 83.9036 153.211 83.9036C154.628 83.9453 155.732 83.862 156.461 83.7786ZM225.107 82.987C225.169 82.987 225.211 82.987 225.273 82.987C226.919 82.2578 239.753 76.7578 254.253 73.2995C251.232 72.0495 248.398 71.4661 245.398 71.4661C243.128 71.4661 240.732 71.7995 238.107 72.5078C229.711 74.737 224.44 78.0703 221.878 80.0495C222.315 80.1536 222.69 80.3411 223.044 80.612C223.919 81.2786 224.378 82.1328 224.378 83.0495C224.628 83.0078 224.878 82.987 225.107 82.987ZM264.607 80.7161C267.523 80.7161 271.878 80.3828 275.919 78.862C279.753 77.362 281.773 73.3203 282.503 71.4661C276.898 74.4661 271.711 75.3203 264.753 75.7786C264.148 77.6536 263.065 78.4453 262.211 79.0703L262.003 79.237C261.419 79.6745 260.628 80.0911 259.878 80.4453C260.857 80.5495 262.503 80.7161 264.607 80.7161ZM175.857 99.2786C178.357 97.0703 179.482 96.4453 182.69 95.0703C184.669 92.487 187.398 90.9453 190.253 90.7578C186.94 88.1328 184.753 85.4453 184.732 81.2995C184.711 77.1745 182.315 72.9453 180.128 71.3828C176.628 68.7161 171.961 68.487 165.482 68.1953C161.107 67.987 156.148 67.7578 150.294 66.737C150.211 66.7161 140.148 64.6953 137.336 64.0495C137.253 64.0286 129.878 62.5286 125.898 61.2995C126.44 63.0703 127.982 64.8828 130.482 66.7161C130.794 66.9245 138.19 71.9036 151.69 74.7578L151.836 74.7995C151.836 74.7995 152.794 75.0078 153.128 75.0703C164.607 77.2786 167.023 77.9661 167.253 78.0286C170.794 79.0286 173.69 80.3203 174.773 81.3828C175.273 81.8411 175.857 82.5495 175.898 82.5911L176.398 83.1953L174.19 82.362C171.586 81.3828 169.523 80.6745 166.732 79.987C166.648 79.9661 164.711 79.4036 156.107 77.7161C156.523 78.3203 156.878 78.987 157.107 79.6953L157.169 79.8411C157.607 81.112 158.044 82.4245 158.628 83.6536C160.773 83.737 167.544 84.2786 173.503 87.7161C174.294 86.737 175.544 86.5286 176.482 86.5286C176.523 86.5286 176.586 86.5286 176.628 86.5286C176.586 85.7161 176.836 84.9661 177.357 84.362C178.148 83.4453 179.336 83.3411 180.148 83.3411C180.336 83.3411 180.523 83.3411 180.669 83.362C180.898 82.9661 181.482 82.5495 181.836 82.3203C182.357 81.987 183.419 81.737 183.482 81.737L184.065 81.612L183.294 82.5703C182.294 83.987 182.544 85.0703 182.544 85.0911L182.628 85.3828L181.607 85.2578C181.378 85.237 181.148 85.2161 180.878 85.2161C179.919 85.2161 179.128 85.4036 178.878 85.6953C178.315 86.3411 178.773 87.237 178.773 87.2578L179.544 88.7786L179.169 88.737C178.898 88.7161 178.607 88.6745 178.336 88.6536C177.732 88.5911 177.107 88.5078 176.565 88.5078C175.732 88.5078 175.232 88.6745 175.023 89.0286L175.003 89.0911C174.794 89.4661 174.523 89.987 176.419 91.7995L176.732 92.112L176.294 92.1745C176.273 92.1745 173.544 92.5286 172.211 93.0078C171.857 93.1328 171.648 93.3203 171.607 93.5286C171.586 93.6536 171.607 94.0703 172.544 94.612L173.523 95.1953C173.523 95.1953 171.336 96.2578 171.294 97.6745L175.857 99.2786ZM155.211 70.1328C155.19 70.1328 155.211 70.112 155.211 70.112C156.294 70.112 161.357 71.0078 164.273 71.3203C165.773 71.5078 173.419 72.4661 175.669 73.8203C177.898 75.1328 178.982 77.4661 179.69 79.3411L180.065 80.362C180.065 80.362 179.753 80.362 178.523 79.0703C177.69 78.0286 176.461 76.4661 174.628 75.5495C169.336 73.0078 160.69 73.0911 155.211 70.1328ZM263.398 73.7995C263.565 73.7995 263.732 73.7995 263.898 73.7995C268.086 73.6328 276.398 72.612 280.94 69.9036C284.711 67.8828 285.836 64.987 286.794 62.3828C286.753 62.4036 286.628 62.4453 286.628 62.4453C285.628 62.862 284.482 63.3411 282.648 63.9661L281.753 64.2578C279.378 65.0703 275.794 66.1536 272.19 67.1328C266.148 68.7786 260.773 71.2786 257.878 72.7578C259.107 73.1953 261.128 73.7995 263.398 73.7995ZM205.253 81.0911C206.711 79.8203 206.669 78.8203 206.523 78.1953C205.753 76.2786 204.294 75.0911 202.19 74.6953L192.503 73.362C192.482 73.3828 192.419 73.487 192.398 73.5286C192.482 73.5703 192.586 73.6328 192.69 73.6745C193.773 74.2161 196.023 75.3411 196.836 77.7161C197.086 78.4245 197.523 78.4661 200.065 78.612L200.836 78.6536C201.44 78.6953 201.711 78.7161 202.169 78.7578C203.253 78.8828 204.065 79.7786 204.232 79.9453C204.378 80.112 204.836 80.6953 204.94 81.362L205.253 81.0911ZM229.565 94.0703C229.732 94.0286 229.898 93.987 230.044 93.9453C228.94 92.7161 227.586 91.862 227.586 91.862L228.336 91.487C228.94 91.1745 229.315 90.8203 229.398 90.4661C229.44 90.2995 229.398 90.1536 229.294 89.9245C229.023 89.3828 228.482 89.112 227.711 89.112C227.398 89.112 227.107 89.1536 226.919 89.1953L225.169 89.4661L225.857 88.1745C227.044 85.8411 226.398 85.4036 226.107 85.1953C225.69 84.9036 225.253 84.7578 224.773 84.7578C224.253 84.7578 223.815 84.9245 223.44 85.0703C223.336 85.112 223.232 85.1536 223.148 85.1745L221.357 85.8203C221.357 85.8203 222.003 84.4245 222.044 84.3411C222.461 83.4453 222.544 82.8203 221.794 82.2161C221.482 81.987 221.148 81.862 220.794 81.862C220.44 81.862 220.065 81.987 219.69 82.237L218.003 83.3828L218.086 82.9036C218.378 81.1536 216.648 78.7161 216.648 78.7161C216.648 78.7161 217.628 78.7995 218.961 79.5286C219.044 79.5703 219.107 79.612 219.169 79.6328C221.565 77.4036 227.086 73.362 237.586 70.5703C240.398 69.8203 242.961 69.4661 245.398 69.4661C248.836 69.4661 252.065 70.1745 255.565 71.6953C257.544 70.6328 264.107 67.2578 271.69 65.1953C275.648 64.112 279.503 62.8203 280.982 62.3203L283.523 61.4036C285.94 60.4453 288.857 58.7995 290.253 54.4453L259.878 64.612C255.336 66.4245 247.169 67.0911 239.94 67.6953C236.44 67.987 233.148 68.2578 230.711 68.6328C217.273 70.9661 215.878 77.4453 215.128 80.9453C215.086 81.1745 215.044 81.3828 214.982 81.5703C214.378 84.7995 213.065 87.3411 211.107 89.1328C211.565 89.112 212.107 89.112 212.357 89.112C213.773 89.1536 214.773 89.5286 215.836 89.987C216.211 90.1536 216.607 90.3203 217.003 90.5078C217.315 90.6536 217.648 90.7995 217.982 90.9453C219.482 91.612 221.503 92.2161 224.669 93.112L224.919 93.1745C225.711 93.4036 226.336 93.5703 226.878 93.7578C227.378 93.9245 228.19 94.2578 228.398 94.3411C228.794 94.2578 229.19 94.1745 229.565 94.0703ZM205.961 74.1536C206.711 73.7578 206.773 72.6328 206.669 72.2578C206.357 71.1745 205.544 70.362 204.273 69.8411C203.586 69.5911 202.69 69.487 201.628 69.487C198.336 69.487 194.128 70.737 193.19 71.9453L202.523 73.0078C203.003 73.0703 204.253 73.3411 205.544 74.2578C205.711 74.237 205.836 74.1953 205.961 74.1536ZM150.586 95.112C150.065 94.5911 149.253 94.2995 148.607 94.237C147.273 94.1536 145.794 94.6953 144.523 95.8828C147.398 96.0495 147.836 97.3203 149.378 96.112L150.586 95.112ZM151.378 95.9036L150.398 97.0078C149.232 98.4245 150.398 98.862 150.503 101.549C151.648 100.404 152.19 99.0078 152.148 97.7786C152.107 97.1536 151.857 96.3828 151.378 95.9036ZM147.732 99.2161L146.919 100.445C145.982 102.029 147.211 102.279 147.69 104.924C148.648 103.612 149.003 102.174 148.753 100.945C148.648 100.341 148.273 99.612 147.732 99.2161ZM145.107 103.487L144.482 104.779C143.773 106.424 144.982 106.529 145.794 109.008C146.565 107.633 146.711 106.174 146.315 105.029C146.128 104.466 145.69 103.82 145.107 103.487ZM146.586 98.4661C145.961 98.112 145.086 98.0495 144.44 98.1745C143.148 98.4453 141.857 99.4036 140.982 100.883C143.794 100.258 144.565 101.341 145.711 99.7578L146.586 98.4661ZM143.753 102.862C143.044 102.633 142.169 102.737 141.544 103.008C140.294 103.549 139.19 104.758 138.607 106.424C141.294 105.237 142.294 106.174 143.128 104.362L143.753 102.862ZM142.794 106.862C142.315 107.216 141.982 107.841 141.857 108.362C141.628 109.424 141.898 110.695 142.711 111.862C143.19 109.549 144.253 109.341 143.461 107.945L142.794 106.862ZM162.919 101.591L162.586 103.133C162.232 105.07 163.565 104.862 165.044 107.341C165.523 105.674 165.315 104.091 164.628 102.966C164.273 102.404 163.628 101.799 162.919 101.591ZM161.857 101.279C161.211 101.091 160.398 101.216 159.836 101.466C158.711 101.987 157.732 103.133 157.253 104.674C159.669 103.508 160.607 104.341 161.336 102.654L161.857 101.279ZM160.607 106.029C159.982 105.737 159.169 105.737 158.586 105.924C157.398 106.279 156.273 107.258 155.544 108.716C158.107 107.924 158.919 108.883 159.878 107.32L160.607 106.029ZM158.044 110.341C157.482 109.987 156.69 109.883 156.107 109.987C154.919 110.174 153.69 110.987 152.815 112.299C155.398 111.862 156.044 112.904 157.169 111.508L158.044 110.341ZM161.753 106.57L161.003 107.966C160.128 109.737 161.461 109.904 162.211 112.674C163.128 111.195 163.378 109.633 163.003 108.341C162.815 107.716 162.357 106.966 161.753 106.57ZM159.086 111.008L158.065 112.258C156.836 113.841 158.128 114.299 158.336 117.216C159.544 115.924 160.107 114.383 160.003 113.029C159.94 112.362 159.628 111.529 159.086 111.008ZM156.107 113.945L154.815 113.841C153.211 113.779 153.523 114.841 151.69 116.32C153.086 116.508 154.357 116.154 155.19 115.466C155.628 115.133 156.023 114.529 156.107 113.945ZM206.878 101.695C207.148 104.341 207.378 106.612 206.273 108.654V108.674C206.086 109.154 205.753 109.904 205.586 110.216C202.461 109.674 199.023 109.633 198.044 109.633C197.44 109.633 196.919 109.654 196.544 109.674C195.065 109.758 193.69 109.966 192.544 110.258C192.69 109.779 192.94 109.049 193.398 108.445L193.648 108.091L193.211 108.112C193.003 108.133 192.794 108.133 192.586 108.133C190.857 108.133 189.836 107.716 189.044 106.695C188.503 105.945 188.357 105.008 188.669 104.195C188.919 103.487 189.482 102.779 190.003 102.091C190.461 101.487 191.461 99.9036 191.794 99.2161C192.003 98.7995 192.211 98.362 192.398 97.8828C192.836 98.4661 193.482 98.862 194.378 99.0703C194.898 99.1953 195.357 99.2578 195.815 99.2578C196.69 99.2578 197.607 99.0495 198.753 98.5703C197.232 99.9245 192.961 100.779 192.961 100.779C192.857 100.904 192.919 101.07 193.065 101.133C193.107 101.154 193.148 101.154 193.169 101.174C193.732 101.32 194.273 101.383 194.857 101.383C196.648 101.383 198.294 100.674 200.086 99.8203C202.982 98.2995 206.523 93.4661 206.669 93.2578C206.878 92.9661 207.169 92.7161 207.461 92.5495C206.19 94.7995 206.461 97.2578 206.732 99.8411C206.753 100.466 206.815 101.07 206.878 101.695ZM204.315 104.529C203.607 105.862 202.857 107.029 200.253 107.133C197.044 107.279 196.232 104.987 196.232 104.987C196.419 105.987 197.19 108.945 200.273 108.82C204.211 108.654 204.315 104.529 204.315 104.529ZM208.669 105.279L208.857 105.029C209.086 104.737 209.273 104.383 209.294 104.32C210.461 102.174 210.648 100.487 210.732 99.7578L210.753 99.6536C210.753 99.6536 210.919 98.3203 211.44 98.3203C214.794 98.3203 218.836 98.987 222.003 99.612C222.836 99.7786 223.711 99.9453 224.544 100.112C225.628 100.383 226.815 100.508 228.065 100.508C229.857 100.508 231.794 100.237 233.794 99.6953L242.003 97.2786C242.336 97.1953 242.669 97.1328 243.003 97.0495C244.19 96.7786 245.336 96.487 246.669 96.487C247.044 96.4661 247.711 96.5703 248.065 96.5703C250.94 96.5703 254.294 95.1328 255.273 94.3828C256.294 93.5911 256.482 92.9036 256.628 92.0911C256.69 91.7161 256.669 91.487 256.565 91.362C256.503 91.2995 256.419 91.2578 256.315 91.2578C256.065 91.2578 255.648 91.4245 255.107 91.6328C254.357 91.9245 250.815 92.9036 250.065 92.9453C250.211 92.6953 250.732 92.1953 251.232 91.8203C251.898 91.3203 252.523 90.8411 252.607 89.9453C252.607 89.7786 252.482 89.7161 252.378 89.7161C252.315 89.7161 252.211 89.7786 252.148 89.7995C251.878 89.9453 251.628 90.1328 251.378 90.3203C250.773 90.7578 250.148 91.2161 249.315 91.2161C249.315 91.2161 249.273 91.2161 249.253 91.2161C249.232 91.2161 249.232 91.2161 249.232 91.2161C248.336 91.2995 247.815 91.8203 247.273 92.362C246.69 92.9453 246.086 93.5495 244.961 93.6953L233.19 95.237C232.294 95.3411 231.419 95.5286 230.586 95.7161C229.773 95.9036 228.919 96.0911 228.086 96.1953C226.44 95.5495 224.565 95.0286 222.753 94.5286C220.253 93.8203 217.898 93.1745 216.211 92.2578C215.982 92.1328 213.815 90.987 211.669 90.987C211.169 90.987 210.69 91.0495 210.273 91.1745H210.253H210.232C209.982 91.3411 207.711 92.9661 208.003 97.4245C208.128 99.237 208.253 100.529 208.378 101.57C208.44 102.174 208.503 102.674 208.544 103.174C208.544 103.279 208.607 104.216 208.586 104.945L208.669 105.279ZM191.544 92.4245C191.44 92.4245 191.336 92.4245 191.232 92.4245C188.607 92.4245 186.19 93.8203 184.023 96.5495C181.211 97.737 179.044 99.1745 176.482 101.133C176.107 101.091 173.044 99.9453 170.086 98.8411C168.294 98.1745 166.44 97.4661 165.023 96.9661C163.023 95.5703 160.586 94.7161 159.086 94.5078C158.815 94.4661 158.503 94.4453 158.128 94.4453C156.544 94.4453 154.586 94.7786 153.982 95.0703C153.898 95.0911 153.753 95.1745 153.732 95.3411C153.732 95.4245 153.753 95.5078 153.815 95.5703C153.898 95.6536 154.023 95.6953 154.253 95.6953C154.482 95.6953 154.794 95.6536 155.169 95.5911C155.669 95.5286 156.294 95.4245 156.919 95.4245C158.711 95.4245 159.732 96.1328 160.169 97.6536C159.523 97.7786 159.294 97.9661 159.065 98.1745C158.815 98.4036 158.586 98.612 157.753 98.737L157.544 98.7786H157.523C157.378 98.8203 157.273 98.9036 157.273 99.0078C157.253 99.1536 157.378 99.2786 157.419 99.2995C157.607 99.4453 157.898 99.5286 158.253 99.5286C158.607 99.5286 159.003 99.4453 159.315 99.2995C159.648 99.1328 160.044 99.0911 160.461 99.0495C161.044 98.987 161.711 98.8203 162.44 98.4245C164.607 99.3411 166.69 100.695 168.669 102.487C170.003 103.695 171.523 105.091 174.461 106.633C174.648 106.716 174.919 106.799 175.232 106.799C175.732 106.799 176.294 106.591 176.94 106.154C178.753 105.091 188.128 99.6745 189.065 99.1953H189.086L189.107 99.1745C190.232 98.0911 190.878 95.8203 190.961 95.5495C191.003 95.4036 191.044 95.2161 191.107 95.0286C191.336 94.2161 191.648 93.112 191.69 92.5286L191.711 92.4245H191.544ZM211.336 77.987C210.628 78.6745 209.961 78.8828 209.461 78.8828C208.898 78.8828 208.378 78.737 207.94 78.5495C207.919 78.7786 207.982 79.0703 208.065 79.2786C208.273 79.8203 208.815 80.1328 209.315 80.1328C210.44 80.1328 211.336 79.112 211.336 77.987ZM207.732 76.6536C208.648 77.237 209.44 77.3828 210.107 77.0911C210.982 76.6953 211.357 75.6745 211.378 75.5495C211.503 74.737 211.148 74.612 210.669 74.4661C210.253 74.3203 209.753 74.1536 209.711 73.4245C209.711 73.1536 209.628 72.987 209.482 72.9036C209.232 72.737 208.773 72.862 208.544 72.9661C208.398 74.5703 207.565 75.3203 206.961 75.6745L207.732 76.6536ZM198.544 68.4453C198.544 68.4453 197.44 67.9453 196.232 67.8411C194.753 67.7161 193.773 68.0286 193.211 68.2995C192.294 68.737 191.857 69.8828 192.336 70.5911C193.753 69.4453 196.023 68.7786 198.544 68.4453ZM207.607 90.112C207.107 89.9453 206.794 89.862 206.336 89.6745C203.023 88.362 204.294 85.1328 203.836 82.5703C203.773 82.0495 203.628 81.5286 202.961 81.737C202.648 81.8203 201.461 83.112 199.586 82.4453C200.315 82.2161 200.982 81.987 201.44 81.6328C202.065 81.1536 202.273 80.5286 201.961 80.0911C201.773 79.7786 201.336 79.7161 200.982 79.8203C200.669 79.9245 200.315 80.4245 200.419 80.9245C200.419 80.9245 199.669 81.0078 198.878 80.2578C198.544 79.9453 197.982 79.8411 197.336 79.862C196.419 79.9245 195.836 79.6953 195.503 78.6745C195.107 76.9661 193.294 75.5911 191.836 74.8203C191.461 75.7786 191.107 76.4245 191.128 77.5703C191.232 78.3411 192.607 78.1953 193.107 78.2786C194.523 78.6328 192.19 79.6328 192.211 80.3203C192.065 80.112 191.961 79.6953 192.169 79.5078C192.523 79.0078 191.773 79.0495 191.586 78.7995C191.544 80.1536 190.482 82.0495 190.565 82.5286C190.586 82.6536 191.773 82.737 191.773 82.737C192.086 83.0286 191.878 83.5911 191.919 83.987C191.919 84.0078 191.961 84.0286 191.982 84.0286C192.065 84.0703 192.482 84.112 192.607 84.112C192.711 84.1328 192.815 84.2161 192.815 84.3203C192.815 84.4453 192.732 84.5286 192.607 84.5286C192.607 84.5286 192.44 84.5286 192.253 84.487C192.336 84.8411 192.315 85.2161 192.815 85.4245C193.065 85.7786 192.711 86.7578 193.357 86.9245C195.148 87.3411 197.482 85.3203 199.419 83.9661C199.128 85.112 197.523 86.3411 197.128 87.487C197.128 87.487 197.065 89.3203 196.669 90.5078C196.19 91.9453 194.648 91.6745 193.503 92.2578C193.503 92.3411 193.482 92.4453 193.461 92.5703C193.44 92.737 193.398 92.9245 193.398 93.1328V93.237C193.398 93.2786 193.378 93.3411 193.378 93.4245C193.294 94.1745 193.065 96.1953 194.357 96.8828C194.773 97.0911 195.253 97.1953 195.815 97.1953C197.107 97.1953 198.732 96.6328 200.482 95.5703C202.357 94.4453 203.336 93.5703 204.398 92.6328C205.169 91.9036 206.086 91.0911 207.607 90.112ZM235.023 101.383C237.086 104.695 240.253 104.612 242.44 103.987C239.94 103.154 239.044 102.716 237.169 100.779C237.19 100.779 236.003 101.154 235.023 101.383ZM190.315 110.091C189.607 109.883 189.232 109.716 188.628 109.299C186.711 108.008 185.565 105.237 186.94 102.841C186.961 102.779 187.044 102.633 187.294 102.237C186.253 102.883 177.169 108.216 177.169 108.216C177.169 108.216 177.211 108.883 178.107 109.216C179.961 109.799 182.19 109.279 183.44 109.029C182.565 109.966 181.482 111.883 182.065 114.029C183.898 113.57 184.773 113.258 186.148 111.174C186.107 113.112 185.982 116.32 187.69 117.904C187.982 117.049 189.003 113.904 190.315 110.091ZM239.128 100.258C240.065 101.195 241.482 102.466 244.732 103.029C246.461 103.299 249.336 102.924 250.503 102.612C247.273 101.841 245.482 100.404 243.69 98.9036C243.128 99.0078 240.94 99.5703 239.128 100.258ZM246.232 98.2786C247.544 99.3411 249.19 100.674 251.94 101.383C255.211 102.174 259.586 100.237 259.836 99.987C256.961 99.8411 254.794 98.8411 252.565 97.4245C249.857 98.8203 247.253 97.862 246.232 98.2786ZM254.732 96.362C256.19 97.1536 257.357 97.612 258.711 97.9661C262.294 99.0495 264.523 96.4453 265.544 94.9453C265.586 94.8828 265.586 94.7578 265.482 94.7578C260.836 94.737 260.461 94.3203 258.648 93.5495C258.378 94.1536 257.44 95.6328 254.732 96.362Z" fill="white"/>
<path d="M198.479 213.693C234.792 213.693 241.042 242.88 278.292 242.88C300.854 242.88 301.292 233.297 301.292 233.297L297.479 213.714C302.417 207.818 322.625 208.505 322.625 208.505L305.104 185.797C288.812 186.839 275.437 191.047 275.437 198.109V219.151C253.479 219.151 238.812 190.089 198.5 190.089C158.187 190.089 143.5 219.151 121.562 219.151V198.109C121.562 191.068 108.167 186.859 91.8958 185.797L74.375 208.505C74.375 208.505 94.6042 207.797 99.5208 213.714L95.7083 233.297C95.7083 233.297 96.1458 242.88 118.708 242.88C155.917 242.88 162.188 213.693 198.479 213.693Z" fill="#000F46"/>
<path d="M285.372 206.94C294.039 209.336 294.852 210.878 295.06 211.753C295.227 212.648 295.018 213.482 294.393 214.273C292.185 217.086 285.518 218.982 277.372 219.128V202.919C278.997 204.586 281.643 205.919 285.372 206.94ZM277.393 198.023C277.393 202.003 281.539 203.836 285.914 205.044C294.227 207.336 296.393 209.044 297.039 211.419C300.935 208.419 307.789 207.148 318.56 206.732L303.956 187.732C298.539 188.273 292.56 189.107 288.352 190.357C281.81 192.294 277.393 195.044 277.393 198.023ZM295.831 215.69C292.622 219.523 284.247 221.003 277.393 221.128H275.414C265.497 221.128 257.289 215.753 247.789 209.544C235.643 201.607 221.914 192.628 200.456 192.107H196.497C175.018 192.628 161.31 201.607 149.164 209.544C139.664 215.753 131.456 221.128 121.539 221.128H119.56C112.706 221.003 104.331 219.523 101.122 215.69L97.6849 233.357C97.9766 234.523 100.372 240.919 118.664 240.919C136.789 240.919 147.102 233.919 158.018 226.523C168.352 219.503 179.039 212.273 196.497 211.753H200.456C217.914 212.273 228.602 219.503 238.935 226.523C249.852 233.919 260.164 240.919 278.289 240.919C296.581 240.919 298.997 234.503 299.268 233.357L295.831 215.69ZM111.581 206.94C102.914 209.336 102.102 210.878 101.893 211.753C101.727 212.648 101.935 213.482 102.56 214.273C104.768 217.086 111.435 218.982 119.581 219.128V202.919C117.956 204.586 115.331 205.919 111.581 206.94ZM108.622 190.336C104.414 189.086 98.4349 188.253 93.0182 187.711L78.4141 206.711C89.1849 207.128 96.0182 208.419 99.9349 211.398C100.56 209.044 102.727 207.336 111.06 205.023C115.414 203.815 119.581 201.982 119.581 198.003C119.56 195.044 115.143 192.294 108.622 190.336Z" fill="white"/>
<path d="M293.542 232.107C293.542 232.107 294.042 234.336 293.958 234.461C293.958 234.461 293.687 234.566 293.583 234.503C293.5 234.316 293.438 234.274 292.979 234.357C292.979 234.357 286.083 235.899 285.958 235.816C285.958 235.816 285.875 235.545 285.958 235.42C286.437 235.253 286.437 235.149 286.396 234.92L284.5 226.399C284.458 226.17 284.417 226.086 283.75 226.066C283.75 226.066 283.687 225.795 283.771 225.67L290.458 224.191C290.896 224.086 290.937 224.003 291.021 223.711C291.021 223.711 291.271 223.607 291.396 223.691C291.396 223.691 291.917 225.982 291.833 226.107C291.833 226.107 291.562 226.17 291.437 226.107C291.354 225.961 291.292 225.899 290.854 226.003C290.854 226.003 286.833 226.899 286.812 226.795C286.812 226.816 287.25 228.836 287.25 229.149C287.25 229.17 287.25 229.191 287.229 229.191C287.25 229.191 289.667 228.649 289.667 228.649C290.125 228.545 290.146 228.503 290.229 228.211C290.229 228.211 290.521 228.107 290.625 228.149C290.625 228.149 291.188 230.441 291.104 230.566C291.104 230.566 290.812 230.67 290.708 230.649C290.646 230.503 290.521 230.399 290.063 230.482C290.063 230.482 287.917 230.961 287.708 231.003C287.771 231.295 288.208 233.232 288.188 233.524C288.188 233.545 288.167 233.566 288.167 233.566C288.187 233.566 292.542 232.607 292.542 232.607C293 232.503 293.021 232.461 293.104 232.149C293.104 232.149 293.375 232.024 293.5 232.086L293.542 232.107ZM251.187 226.357C251.187 226.357 251.437 226.482 251.479 226.628C251.479 226.628 250.104 228.732 249.958 228.753C249.958 228.753 249.729 228.628 249.687 228.503C249.771 228.316 249.771 228.191 249.375 227.941C249.375 227.941 243.687 224.211 243.667 224.066C243.667 224.066 243.812 223.816 243.937 223.774C244.312 223.961 244.417 223.92 244.542 223.711L249.312 216.441C249.458 216.232 249.479 216.128 249.104 215.691C249.104 215.691 249.229 215.441 249.375 215.42C249.375 215.42 252.083 217.191 252.104 217.336C252.104 217.336 252 217.586 251.854 217.628C251.375 217.378 251.271 217.42 251.125 217.628C251.125 217.628 246.917 224.045 246.792 224.045L250.375 226.399C250.75 226.628 250.833 226.628 251.187 226.357ZM182 208.482C182 208.482 181.854 208.732 181.75 208.753C181.625 208.691 181.542 208.649 181.458 208.67C180.896 209.066 180.708 210.357 178.437 211.024C175.729 211.857 173.208 210.357 172.312 207.399C171.208 203.795 173.125 201.441 175.521 200.691C177.542 200.128 178.375 200.982 178.625 200.711C178.813 200.503 178.917 200.336 179.042 200.357L179.271 200.378L179.208 200.67C179.208 200.67 178.646 203.295 178.542 203.378L178.313 203.336C178.313 203.336 178.271 203.024 178.021 202.753C177.646 202.357 176.792 202.232 176.104 202.441C175.25 202.691 173.354 203.42 174.375 206.732C174.917 208.316 176 209.711 178.062 209.17C178.667 208.982 179.229 208.545 179.479 208.066C179.479 208.066 179.729 207.545 179.437 206.92C179.437 206.92 179.562 206.711 179.687 206.711L182 208.482ZM121.438 227.107C120.625 226.253 119.479 225.774 118.187 225.732C116.875 225.711 115.729 226.128 114.875 226.941C113.875 227.878 113.312 229.316 113.271 230.961C113.187 234.17 115.062 236.357 117.937 236.441C119.25 236.461 120.396 236.066 121.25 235.232C122.25 234.295 122.812 232.857 122.854 231.191C122.875 229.566 122.375 228.086 121.438 227.107ZM120.667 231.149C120.646 232.42 120.312 233.399 119.708 233.982C119.271 234.42 118.667 234.628 117.958 234.607C116.271 234.566 115.375 233.295 115.417 231.045C115.437 229.753 115.792 228.795 116.396 228.211C116.833 227.795 117.417 227.586 118.125 227.607C118.833 227.628 119.417 227.857 119.833 228.295C120.417 228.899 120.708 229.878 120.667 231.149ZM278.5 226.232L274.208 226.211C274.104 226.316 274.083 226.586 274.083 226.586C274.5 226.732 274.563 226.836 274.542 227.107L274.521 235.816C274.521 236.086 274.479 236.149 274.125 236.211L274.042 236.586C274.146 236.691 278.062 236.711 278.062 236.711C279.771 236.711 281.083 236.274 281.958 235.399C282.854 234.524 283.292 233.211 283.292 231.482C283.313 228.232 281.521 226.253 278.5 226.232ZM281.146 231.503C281.125 234.066 280.312 234.878 277.729 234.878H276.604C276.708 234.857 276.729 228.67 276.75 228.107C276.917 228.107 277.771 228.128 277.771 228.128C280.333 228.128 281.167 228.961 281.167 231.482V231.503H281.146ZM210.042 197.732C210.042 197.732 210.896 198.232 211.021 198.274C211.146 198.316 211.292 198.232 211.417 198.128L211.729 198.378C211.729 198.378 209.958 200.649 209.812 200.67C209.812 200.67 209.562 200.524 209.5 200.42C209.5 200.42 209.542 200.149 209.563 200.086C209.667 199.586 208.708 198.899 207.271 198.732C206.729 198.649 206.313 198.732 206.021 198.961C205.729 199.17 205.667 199.42 205.646 199.67C205.562 200.461 206.583 200.836 207.771 201.253C209.5 201.878 211.646 202.628 211.354 205.107C211.25 205.899 210.833 206.607 210.187 207.128C209.521 207.649 208.312 208.232 206.292 207.941C206.292 207.941 204.312 207.586 202.854 206.607C202.854 206.607 202.812 206.566 202.417 206.836L202.146 206.628L202.208 206.545C202.208 206.545 203.708 204.232 203.854 204.191L204.125 204.336C204.125 204.336 204.104 204.524 204.104 204.586C204.021 205.336 205.792 205.941 206.625 206.045C207.604 206.17 208.292 206.066 208.687 205.753C208.875 205.586 209.062 205.295 209.125 204.899C209.25 204.045 208.125 203.649 206.875 203.191C205.208 202.586 203.146 201.857 203.417 199.67C203.604 198.232 204.833 196.67 207.667 197.024C208.562 197.128 209.354 197.378 210.042 197.732ZM227.167 202.899C227.021 202.961 226.917 203.211 226.917 203.211C227.25 203.503 227.229 203.566 227.208 203.607L226.646 204.253L220.604 210.378C220.604 210.378 220.437 210.545 220.25 210.566C220.146 210.586 220 210.607 219.875 210.607L219.729 210.941L222.417 212.191L222.563 211.857C222.521 211.836 222.479 211.795 222.437 211.732C222.396 211.67 222.396 211.607 222.417 211.524C222.458 211.461 222.563 211.295 222.563 211.295C222.563 211.295 223.75 210.024 223.792 209.941C223.875 210.003 226.917 211.399 226.917 211.42C226.896 211.566 226.687 213.211 226.687 213.211C226.687 213.211 226.646 213.399 226.625 213.461C226.583 213.524 226.542 213.566 226.458 213.586C226.375 213.586 226.312 213.586 226.271 213.566L226.125 213.899L228.813 215.149L228.958 214.816C228.875 214.711 228.792 214.607 228.75 214.503C228.646 214.357 228.687 214.107 228.687 214.107L229.438 205.545L229.542 204.753C229.563 204.691 229.625 204.566 229.917 204.67C230.042 204.607 230.167 204.357 230.167 204.357C230.167 204.211 227.167 202.899 227.167 202.899ZM227.146 209.795C227.146 209.795 225.208 208.899 224.896 208.753C225.062 208.566 227.333 206.066 227.646 205.732C227.646 205.732 227.167 209.691 227.146 209.795ZM258.854 221.211C258.708 221.253 258.604 221.503 258.604 221.503C258.917 221.816 258.896 221.878 258.875 221.899L258.292 222.524C258.292 222.524 252.042 228.42 252.042 228.441C252.042 228.441 251.875 228.607 251.687 228.628C251.562 228.649 251.438 228.649 251.313 228.649L251.146 228.961L253.792 230.295L253.958 229.982C253.917 229.961 253.875 229.92 253.833 229.857C253.792 229.795 253.792 229.732 253.833 229.649C253.875 229.586 254 229.441 254 229.441C254 229.441 255.229 228.211 255.292 228.128C255.375 228.191 258.354 229.691 258.375 229.711C258.354 229.857 258.083 231.503 258.083 231.503C258.083 231.503 258.042 231.691 258 231.753C257.958 231.816 257.917 231.857 257.833 231.857C257.75 231.857 257.687 231.857 257.646 231.836L257.479 232.149L260.125 233.482L260.292 233.17C260.208 233.045 260.146 232.941 260.083 232.836C260 232.691 260.021 232.441 260.021 232.441L261.062 223.899L261.208 223.107C261.229 223.045 261.292 222.92 261.583 223.045C261.708 223.003 261.833 222.732 261.833 222.732C261.792 222.628 258.854 221.211 258.854 221.211ZM258.583 228.107C258.583 228.107 256.687 227.149 256.375 226.982C256.542 226.795 258.917 224.378 259.229 224.045C259.208 224.066 258.604 228.003 258.583 228.107ZM201.438 204.941C201.438 204.941 201.521 207.232 201.417 207.336C201.417 207.336 201.125 207.399 201.021 207.316C200.979 207.128 200.917 207.066 200.458 207.066C200.458 207.066 193.396 207.295 193.292 207.191C193.292 207.191 193.271 206.899 193.354 206.795C193.854 206.711 193.875 206.628 193.875 206.378L193.604 197.649C193.604 197.42 193.583 197.316 192.917 197.17C192.917 197.17 192.917 196.899 193.021 196.795L199.875 196.586C200.333 196.566 200.396 196.482 200.521 196.211C200.521 196.211 200.792 196.17 200.896 196.274C200.896 196.274 200.979 198.628 200.875 198.732C200.875 198.732 200.604 198.753 200.5 198.67C200.458 198.503 200.396 198.441 199.937 198.461C199.937 198.461 195.833 198.586 195.813 198.482C195.813 198.503 195.875 200.566 195.813 200.878C195.813 200.899 195.792 200.92 195.792 200.92C195.812 200.92 198.292 200.836 198.292 200.836C198.75 200.816 198.792 200.795 198.917 200.503C198.917 200.503 199.229 200.441 199.312 200.503C199.312 200.503 199.437 202.857 199.333 202.961C199.333 202.961 199.021 203.003 198.938 202.961C198.896 202.795 198.812 202.67 198.333 202.691C198.333 202.691 196.125 202.753 195.937 202.753C195.958 203.045 196.021 205.024 195.958 205.336C195.958 205.357 195.937 205.357 195.937 205.357C195.958 205.357 200.417 205.211 200.417 205.211C200.875 205.191 200.917 205.149 201.042 204.878C201.042 204.878 201.333 204.795 201.438 204.899V204.941ZM129.312 224.857C129.312 224.857 130.25 225.066 130.396 225.066C130.521 225.066 130.646 224.941 130.708 224.795L131.083 224.92C131.083 224.92 130.146 227.566 130.021 227.649C130.021 227.649 129.729 227.586 129.646 227.503C129.646 227.503 129.604 227.232 129.604 227.17C129.542 226.691 128.438 226.336 127.063 226.607C126.542 226.711 126.187 226.92 125.979 227.191C125.771 227.461 125.792 227.732 125.854 227.961C126.021 228.732 127.063 228.753 128.313 228.774C130.104 228.816 132.333 228.857 132.812 231.232C132.958 231.982 132.792 232.795 132.354 233.461C131.896 234.149 130.958 235.066 129 235.399C129 235.399 127.062 235.67 125.417 235.232C125.417 235.232 125.354 235.211 125.083 235.566L124.771 235.461L124.792 235.357C124.792 235.357 125.458 232.753 125.583 232.67L125.875 232.732C125.875 232.732 125.917 232.92 125.937 232.982C126.083 233.711 127.917 233.711 128.729 233.545C129.667 233.357 130.271 233.045 130.562 232.628C130.687 232.42 130.771 232.086 130.708 231.691C130.563 230.857 129.417 230.836 128.083 230.795C126.354 230.753 124.229 230.711 123.792 228.586C123.521 227.191 124.167 225.378 126.917 224.836C127.771 224.753 128.583 224.732 129.312 224.857ZM151.812 222.795C151.812 222.795 153.062 224.711 153.042 224.857C153.042 224.857 152.833 225.066 152.708 225.045C152.562 224.899 152.479 224.878 152.104 225.128C152.104 225.128 146.187 228.982 146.042 228.961C146.042 228.961 145.875 228.732 145.896 228.586C146.292 228.253 146.25 228.17 146.125 227.961L141.354 220.649C141.229 220.441 141.146 220.378 140.521 220.586C140.521 220.586 140.375 220.357 140.396 220.211L146.125 216.482C146.5 216.232 146.521 216.128 146.479 215.836C146.479 215.836 146.687 215.649 146.833 215.691C146.833 215.691 148.125 217.649 148.083 217.795C148.083 217.795 147.854 217.961 147.729 217.941C147.604 217.816 147.521 217.795 147.125 218.045C147.125 218.045 143.688 220.295 143.625 220.211C143.625 220.232 144.75 221.961 144.854 222.253C144.854 222.274 144.854 222.295 144.854 222.295C144.875 222.295 146.958 220.941 146.958 220.941C147.354 220.691 147.354 220.649 147.312 220.336C147.312 220.336 147.542 220.128 147.646 220.128C147.646 220.128 148.979 222.066 148.938 222.211C148.938 222.211 148.687 222.42 148.604 222.42C148.479 222.295 148.333 222.253 147.958 222.503C147.958 222.503 146.104 223.691 145.937 223.816C146.104 224.066 147.187 225.732 147.292 226.003C147.292 226.024 147.292 226.045 147.292 226.045C147.312 226.045 151.042 223.607 151.042 223.607C151.437 223.357 151.437 223.295 151.417 222.982C151.417 222.982 151.625 222.774 151.771 222.795H151.812ZM160.375 207.774C160.333 207.92 160.458 208.149 160.458 208.149C160.896 208.066 160.937 208.128 160.937 208.149L161.125 208.982L162.333 217.503C162.333 217.503 162.375 217.753 162.292 217.899C162.229 218.003 162.167 218.107 162.083 218.232L162.25 218.545L164.875 217.149L164.708 216.836C164.667 216.857 164.604 216.857 164.542 216.857C164.458 216.857 164.396 216.816 164.375 216.753C164.333 216.691 164.292 216.503 164.292 216.503C164.292 216.503 164 214.795 163.958 214.691C164.042 214.67 167.021 213.107 167.021 213.086C167.125 213.211 168.313 214.357 168.313 214.357C168.313 214.357 168.437 214.503 168.479 214.566C168.521 214.628 168.521 214.711 168.479 214.774C168.437 214.836 168.396 214.878 168.354 214.899L168.521 215.211L171.146 213.816L170.979 213.503C170.833 213.503 170.708 213.503 170.604 213.482C170.438 213.461 170.25 213.295 170.25 213.295L163.896 207.503L163.333 206.941C163.292 206.878 163.229 206.753 163.5 206.586C163.542 206.441 163.396 206.191 163.396 206.191C163.229 206.211 160.375 207.774 160.375 207.774ZM165.854 212.003C165.854 212.003 163.979 212.982 163.667 213.17C163.625 212.92 163 209.586 162.917 209.149C162.917 209.149 165.771 211.92 165.854 212.003ZM220.354 209.732C220.354 209.732 220.104 209.857 220 209.816C219.937 209.691 219.896 209.607 219.792 209.586C219.104 209.607 218.229 210.566 215.979 209.878C213.271 209.086 211.979 206.441 212.854 203.461C213.917 199.836 216.833 198.941 219.229 199.649C221.229 200.295 221.458 201.461 221.812 201.378C222.083 201.316 222.271 201.232 222.354 201.316L222.542 201.461L222.333 201.67C222.333 201.67 220.417 203.566 220.292 203.566L220.125 203.42C220.125 203.42 220.271 203.149 220.208 202.774C220.104 202.232 219.458 201.67 218.771 201.461C217.917 201.211 215.938 200.753 214.958 204.107C214.542 205.732 214.687 207.482 216.687 208.191C217.292 208.357 218 208.316 218.479 208.045C218.479 208.045 218.979 207.753 219.083 207.066C219.083 207.066 219.312 206.961 219.396 207.024L220.354 209.732ZM109.75 224.441L105.083 223.545C104.958 223.628 104.979 223.899 104.979 223.899C105.417 224.149 105.437 224.253 105.375 224.503L103.708 233.066C103.667 233.316 103.583 233.42 103.208 233.399C103.083 233.482 103.062 233.816 103.062 233.816C103.083 233.836 106.187 234.42 106.187 234.42L106.25 234.066C105.896 233.878 105.833 233.774 105.833 233.607C105.833 233.566 105.833 233.524 105.854 233.482C105.854 233.482 106.521 230.107 106.521 230.066C106.521 230.17 108.562 230.566 108.562 230.566C111.187 231.086 112.437 229.67 112.729 228.191C113.042 226.711 112.396 224.941 109.75 224.441ZM108.583 228.67C108.583 228.67 106.896 228.336 106.875 228.336C106.979 228.024 107.292 226.149 107.354 225.857C107.542 225.899 109.062 226.191 109.062 226.191C110.333 226.461 110.792 226.878 110.625 227.795C110.437 228.711 109.896 228.92 108.583 228.67ZM161.333 218.461C160.958 218.524 160.812 218.461 160.208 218.107L157.229 216.42C158.417 215.128 158.25 213.691 157.562 212.649C156.729 211.378 155.063 210.566 152.792 212.024L148.812 214.607C148.792 214.753 149 214.941 149 214.941C149.479 214.816 149.562 214.878 149.708 215.086L154.458 222.399C154.604 222.607 154.625 222.753 154.312 222.982C154.292 223.128 154.5 223.378 154.5 223.378C154.542 223.378 157.167 221.649 157.167 221.649L156.937 221.274C156.562 221.378 156.437 221.357 156.312 221.232C156.292 221.191 156.25 221.17 156.229 221.128C156.229 221.128 154.437 218.378 154.417 218.336C154.417 218.336 154.979 217.982 155.458 217.67C155.958 218.003 158.917 219.691 158.958 219.711C159.042 219.774 158.833 219.982 158.771 220.024C158.75 220.086 159 220.42 159 220.42C159.062 220.441 161.562 218.774 161.562 218.774C161.521 218.711 161.333 218.461 161.333 218.461ZM152.063 214.732C152.229 214.628 153.521 213.774 153.521 213.774C154.625 213.086 155.229 213.066 155.75 213.836C156.25 214.628 156.021 215.17 154.896 215.878C154.896 215.878 153.458 216.816 153.437 216.836C153.292 216.566 152.208 214.982 152.063 214.732ZM191.854 207.149C191.479 207.066 191.375 206.941 190.937 206.378L188.833 203.67C190.417 202.941 190.813 201.545 190.604 200.336C190.333 198.857 189.104 197.441 186.458 197.92L181.792 198.774C181.708 198.899 181.833 199.149 181.833 199.149C182.333 199.232 182.375 199.316 182.437 199.566L184 208.149C184.042 208.399 184.021 208.524 183.646 208.628C183.562 208.753 183.646 209.066 183.646 209.066C183.687 209.086 186.771 208.503 186.771 208.503L186.687 208.066C186.292 208.003 186.188 207.941 186.125 207.795C186.104 207.753 186.104 207.711 186.083 207.67C186.083 207.67 185.5 204.441 185.479 204.399C185.479 204.399 186.125 204.295 186.708 204.191C187.042 204.691 189.125 207.399 189.146 207.42C189.208 207.503 188.937 207.607 188.854 207.628C188.812 207.67 188.917 208.066 188.917 208.066C188.958 208.107 191.917 207.545 191.917 207.545C191.937 207.441 191.854 207.149 191.854 207.149ZM184.729 200.128C184.917 200.086 186.438 199.816 186.438 199.816C187.708 199.607 188.292 199.816 188.458 200.732C188.625 201.649 188.187 202.066 186.875 202.295C186.875 202.295 185.187 202.607 185.167 202.607C185.167 202.295 184.792 200.42 184.729 200.128ZM140.604 230.836C140.708 231.086 140.792 231.128 141.229 231.086L141.396 231.42L141.292 231.461C141.292 231.461 138.875 232.566 138.646 232.649C138.646 232.649 138.479 232.357 138.5 232.274C138.562 232.232 138.687 232.086 138.687 231.982C138.687 231.92 138.667 231.836 138.604 231.732C138.604 231.732 135.521 225.066 135.396 224.691L133.271 225.691C132.937 225.857 132.854 225.941 132.854 226.232C132.854 226.274 132.854 226.336 132.875 226.399C132.875 226.399 132.646 226.586 132.5 226.524C132.5 226.524 131.437 224.253 131.479 224.107C131.479 224.107 131.687 223.961 131.812 223.982C131.937 224.149 132.021 224.191 132.437 223.982L138.479 221.232C138.875 221.045 138.958 221.024 138.958 220.691C138.958 220.691 139.125 220.566 139.271 220.524C139.271 220.524 140.417 222.857 140.375 222.982C140.375 222.982 140.146 223.149 140.021 223.107C139.854 222.857 139.75 222.691 139.354 222.878C139.354 222.878 137.458 223.774 137.375 223.774C137.438 223.836 140.604 230.836 140.604 230.836ZM265.729 235.378C263.125 234.649 262.167 232.982 262.833 230.461L264.354 224.92C264.417 224.67 264.292 224.461 263.958 224.316C263.958 224.17 264.042 223.92 264.042 223.92C264.042 223.92 266.167 224.482 267.104 224.774C267.104 224.774 267.042 225.066 266.938 225.149C266.604 225.107 266.521 225.232 266.458 225.482L264.937 231.066C264.771 231.691 264.813 232.253 265.063 232.691C265.292 233.107 265.687 233.399 266.25 233.566C266.812 233.711 267.312 233.649 267.729 233.441C268.167 233.191 268.5 232.732 268.687 232.107L270.292 226.545C270.354 226.295 270.354 226.149 270.063 226.003C270 225.878 270.104 225.586 270.104 225.586C271.042 225.836 273.167 226.441 273.167 226.441C273.167 226.441 273.125 226.711 273.042 226.816C272.687 226.774 272.458 226.899 272.396 227.128L270.792 232.649C270.021 235.191 268.312 236.107 265.729 235.378ZM233.958 218.336C233.917 218.295 233.854 218.274 233.813 218.232C233.813 218.232 235.083 211.441 235.417 210.295C235.437 210.232 235.437 210.17 235.458 210.107C235.021 210.816 231.729 216.003 231.729 216.003C231.688 216.045 231.667 216.107 231.667 216.17C231.667 216.253 231.729 216.378 231.917 216.586L231.729 216.899C231.729 216.899 229.458 215.461 229.312 215.357C229.312 215.357 229.458 215.086 229.542 215.066C229.729 215.17 229.937 215.066 230.042 214.92L234.833 207.357C234.917 207.211 234.937 207.107 234.708 206.816C234.708 206.816 234.792 206.545 234.958 206.503C234.958 206.503 238.021 208.42 238.021 208.461C238.021 208.461 237.875 208.691 237.771 208.732C237.563 208.691 237.458 208.836 237.417 208.878C237.312 209.045 236.229 214.774 236.208 214.816C236.25 214.795 240.958 211.357 241.083 211.211C241.125 211.17 241.187 211.003 241.062 210.836C241.062 210.711 241.208 210.482 241.208 210.482C241.25 210.461 244.271 212.42 244.271 212.42C244.312 212.566 244.104 212.774 244.104 212.774C243.75 212.691 243.646 212.753 243.562 212.899L238.771 220.461C238.667 220.628 238.687 220.857 238.854 220.982C238.875 221.066 238.687 221.316 238.687 221.316C238.521 221.232 236.25 219.774 236.25 219.774L236.458 219.461C236.729 219.545 236.875 219.545 236.938 219.503C237 219.482 237.021 219.441 237.062 219.378C237.062 219.378 240.354 214.191 240.812 213.482C240.771 213.524 240.708 213.566 240.646 213.607C239.771 214.399 234.146 218.441 234.146 218.441C234.062 218.399 234 218.357 233.958 218.336Z" fill="#000F46"/>
</g>
<defs>
<clipPath id="clip0_1433_20665">
<rect width="400" height="260" fill="white"/>
</clipPath>
</defs>
</svg>
