<svg height="397.911213" viewBox="0 0 15.875 25.135" width="251.312345" xmlns="http://www.w3.org/2000/svg" xmlns:xlink="http://www.w3.org/1999/xlink"><defs><clipPath id="a"><path d="m73.294 759.244v-25.38c0-.924.533-1.752 1.4-2.16l14.73-7.032 14.72 6.982a2.42 2.42 0 0 1 1.395 2.165v25.425z"/></clipPath><clipPath id="b"><path d="m46.063 680.315h150.377v89.292h-150.377z"/></clipPath><linearGradient id="c"><stop offset="0" stop-color="#f2edbc"/><stop offset=".018" stop-color="#f2edbc"/><stop offset=".969" stop-color="#a89b11"/><stop offset="1" stop-color="#a89b11"/></linearGradient><radialGradient id="d" cx="0" cy="0" gradientTransform="matrix(.0001333 0 0 -.0001288 79.145574 748.73092)" gradientUnits="userSpaceOnUse" r="1" spreadMethod="pad" xlink:href="#c"/><radialGradient id="e" cx="0" cy="0" gradientTransform="matrix(10.090628 0 0 -9.7531891 89.517026 743.5362)" gradientUnits="userSpaceOnUse" r="1" spreadMethod="pad" xlink:href="#c"/><radialGradient id="f" cx="0" cy="0" gradientTransform="matrix(.0109156 0 0 -.0105506 90.20871 737.0114)" gradientUnits="userSpaceOnUse" r="1" spreadMethod="pad" xlink:href="#c"/><path id="g" d="m-294.11 172.998h.076l.01.01v.46l-.01.01h-.076l-.01-.01v-.46z"/><path id="h" d="m-293.44 177.472-.15-.368-.375.158.164-.362-.38-.145.38-.144-.164-.362.375.158.15-.368.15.368.375-.158-.164.362.38.144-.38.145.164.362-.375-.158z"/></defs><g transform="matrix(1.270759 0 0 1.270759 380.82802 -218.209458)"><path d="m-299.685 184.34v-12.625h12.492v12.642c0 .53-.313 1.016-.805 1.25l-5.44 2.58-5.444-2.6c-.49-.235-.802-.718-.802-1.248" fill="#fff"/><g transform="matrix(.352778 0 0 -.352778 -324.98204 443.23218)"><g clip-path="url(#a)"><path d="m82.873 759.85v-11.134h-11.166v-11.482h11.166v-14.272h13.08v14.272h11.166v11.482h-11.167v11.134z" fill="#db3921"/></g><g clip-path="url(#b)"><path d="m101.05 726.864-11.637-5.52-11.637 5.52a4.21 4.21 0 0 1 -3.605-.004l-2.337-1.116c-.078-.037-.127-.113-.127-.197v-6.462c0-.65.706-1.074 1.31-.786l1.155.552a4.21 4.21 0 0 0 3.605.004l10.638-5.046c.63-.3 1.368-.3 1.998 0l10.638 5.046a4.21 4.21 0 0 0 3.605-.004l1.155-.552c.603-.288 1.31.136 1.31.786v6.462c0 .084-.05.16-.126.197l-2.338 1.116a4.21 4.21 0 0 1 -3.605.004" fill="#e6f7fd"/><path d="m102.848 727.267c-.616 0-1.23-.134-1.798-.403l-11.637-5.52-11.637 5.52c-.567.27-1.183.403-1.798.403a4.21 4.21 0 0 1 -1.807-.408l-2.337-1.115a.22.22 0 0 1 -.127-.197v-6.462c0-.508.43-.878.908-.878a.93.93 0 0 1 .4.092l1.155.55c.57.272 1.188.408 1.807.408s1.23-.134 1.798-.404l10.638-5.045c.316-.15.657-.224 1-.224s.684.074 1 .224l10.638 5.045a4.18 4.18 0 0 0 1.798.404c.618 0 1.238-.136 1.807-.408l1.155-.55a.93.93 0 0 1 .401-.092c.476 0 .908.37.908.878v6.462a.22.22 0 0 1 -.126.197l-2.338 1.115a4.2 4.2 0 0 1 -1.807.408m0-.327c.57 0 1.145-.13 1.657-.374l2.276-1.086v-6.395c0-.34-.295-.55-.57-.55a.57.57 0 0 0 -.251.058l-1.155.55a4.57 4.57 0 0 1 -1.957.442 4.58 4.58 0 0 1 -1.947-.437l-10.638-5.046a1.99 1.99 0 0 0 -1.7 0l-10.638 5.046a4.58 4.58 0 0 1 -1.947.437 4.57 4.57 0 0 1 -1.957-.442l-1.154-.55a.56.56 0 0 0 -.252-.058c-.274 0-.57.2-.57.55v6.395l2.275 1.086a3.87 3.87 0 0 0 3.307.004l11.786-5.6.15.07 11.637 5.52c.5.242 1.08.37 1.65.37m-.003-.54a3.27 3.27 0 0 1 -1.398-.314l-12.037-5.7-12.036 5.7c-.433.206-.917.314-1.4.314a3.29 3.29 0 0 1 -1.406-.317l-1.957-.935v-6.054l1.154.552c.684.326 1.447.498 2.2.498a5.15 5.15 0 0 0 2.197-.493l10.64-5.045a1.39 1.39 0 0 1 1.198 0l10.64 5.045a5.15 5.15 0 0 0 2.197.493 5.16 5.16 0 0 0 2.209-.498l1.155-.552v6.054l-1.958.935a3.29 3.29 0 0 1 -1.406.317m0-.155a3.12 3.12 0 0 0 1.335-.301l1.87-.892v-5.7l-.924.44a5.32 5.32 0 0 1 -2.28.515 5.31 5.31 0 0 1 -2.268-.51l-10.638-5.046c-.164-.077-.347-.12-.53-.12s-.365.042-.53.12l-10.638 5.046c-.702.333-1.486.5-2.268.5s-1.574-.178-2.28-.515l-.925-.44v5.7l1.87.892a3.12 3.12 0 0 0 1.335.301c.458 0 .917-.103 1.328-.298l12.107-5.742.07.033 12.037 5.7a3.12 3.12 0 0 0 1.328.298m4.27 33.614h-35.409v9.804h35.4z" fill="#231f20"/></g><path d="m79.145 748.73h.001z" fill="url(#d)"/><path d="m84.727 750.965.014-.047c.018-.06.034-.116.034-.165v-.21l-.2.08c-.001.001-.154.06-.373.06-.13 0-.26-.022-.38-.062l-.023-.008h-.024a1.53 1.53 0 0 0 -.194.013l.026-.093-.002-.027c-.067-.328-.354-.473-.566-.578l-.033-.017a.57.57 0 0 0 .194-.222c.077-.13-.042-.286-.404-.615l.01-.003.17-.062c.206-.096.17-.228.153-.266a1.77 1.77 0 0 0 -.263-.35c-.097-.108-.19-.2-.24-.324.063.001.13-.015.197-.047l.154-.073-.1-.134-.048-.07c-.164-.235-.3-.52-.44-.924l.118-.016.006-.123c0-.244-.078-.417-.166-.586l-.012-.023-.02-.017-.134-.052c-.228 0-.46.408-.58.65-.092.19-.308.686-.308 1.16 0 1.153.165 1.36.276 1.496l.04.092c0 .13-.05.157-.205.22-.104.044-.235.1-.323.224-.164.272-.507.45-.858.45a.84.84 0 0 1 -.236-.032c.117-.056.23-.148.336-.348.083-.175-.004-.276-.046-.324l-.026-.044v-.14h-.144l-.11-.016c-.092-.022-.206-.022-.286.05-.175.126-.457.26-.735.26-.138 0-.263-.033-.37-.1l-.03-.124.053.13.11-.047.034-.018.04-.02.027-.017.042-.026.098-.073.034-.03.028-.025.034-.035.025-.028.03-.035.024-.03.027-.04.02-.035.024-.042.018-.036.015-.035.02-.045.016-.05.02-.08-.008-.14-.006-.017-.01-.023-.015-.028-.02-.024-.015-.02-.015-.016-.022-.02-.043-.03-.02-.01-.03-.012-.022-.006-.026-.006-.05-.005-.07.006-.024.006-.02.005-.045.015-.017.008-.113.062.07.123-.083-.115-.035.024-.02.015-.06.048.083.116-.098-.102-.015.014.087.113-.1-.103-.017.016.092.1-.106-.096-.01.01-.026-.123-.006-.053c-.018-.243.052-.53.294-.633l.044-.002.04.002c.177 0 .215-.153.232-.22l.035-.085.023-.012.025-.01.032-.012.03-.005h.073l.04.002.2.026.048.004a.33.33 0 0 0 .203-.068l.012-.01h.001l.004-.005.03-.028.032-.04.01-.016.015-.036.006-.027.002-.044-.002-.018-.007-.037-.005-.016-.013-.03-.01-.018-.023-.035-.01-.015-.022-.024-.075-.075-.037-.023-.07-.027-.06-.014h-.02l-.055-.004h-.034l-.035.002-.05.006.016.14-.033-.137.001.14-.02-.138-.02.002c.008-.066.027-.14.068-.184a.62.62 0 0 1 .431-.196l.06-.004c.11 0 .2-.06.243-.16.054-.126.026-.294-.065-.38l-.022-.017-.358-.21c-.22-.12-.395-.216-.535-.387.243-.003.33-.142.33-.26a.52.52 0 0 0 -.177-.398c.105-.006.184-.047.235-.124.147-.162-.04-.353-.193-.508l-.198-.22c.065.01.128.015.2.015.29 0 .478-.143.53-.402v-.028a.73.73 0 0 0 -.131-.404c.055.008.105.014.153.014.156 0 .23-.066.27-.127.098-.13-.04-.26-.163-.376l-.156-.156a.81.81 0 0 0 .404-.019l.058-.02.027-.054a.32.32 0 0 0 -.022-.332c-.087-.134-.27-.24-.434-.306.12-.047.283-.07.476-.07.312 0 .653.065.87.167l.162.077.042-.17c.098-.41.512-.52.76-.586.135-.036.26-.07.26-.2v-.06l-.045-.04c-.214-.198-.402-.6-.35-.756l.005-.026c.048-.4-.067-.797-.3-1.06-.226-.244-.547-.373-.927-.373-.47 0-1.03.07-1.228.618-.107.318-.294.346-.558.162l-.07-.05-.08.037c-.07.033-.15.05-.232.05-.258 0-.545-.164-.7-.388.275-.035.633-.173.743-.43.054-.128.067-.33-.177-.565l-.042-.04h-.06c-.344 0-.577-.202-.674-.574.2.043.38.064.534.064.553 0 .647-.268.663-.382.042-.306-.277-.638-.767-.83.19-.132.353-.193.514-.193.178 0 .36.07.588.16l.177.067a.39.39 0 0 0 .302.014l.042-.014c.17-.07.226-.015.33.24.042.105.078.197.153.252.045.042.113.066.188.066.07 0 .13-.02.17-.04.067-.03.114-.102.127-.14l.004-.015.015-.06.01-.072.001-.067-.008-.072-.01-.045-.016-.05-.004-.015-.007-.016-.003-.02-.01-.012-.005-.008.036-.126-.015.14.016.002.045-.133-.026.138.052-.13-.036.137.06.022.082-.116-.067.124.066.042.018.01.045.038.018.018.038.04.09.113.05.085.134-.055-.12.077.034.067.138-.043-.127.067.028.068.143-.03-.135.05.08.292.01.09c.004.052.05.195.102.253l.065.07.082.08.02.017.078.056.04.022.013.006.02.007.024.01.023.007.016.002.035.005c.14.028.274-.03.422-.1.172-.08.385-.18.723-.18.165 0 .35.025.547.074-.045.1-.088.22.03.32l.02.018.154.05.535.178c.142.118.315.16.468.198l.166.043c-.045.043-.074.096-.074.16v.06l.043.04c.057.055.15.076.264.1l.042.01-.05.107c-.005.135.126.212.584.46l.452.258c-.13.123-.25.312-.272.415-.032.138.038.223.116.258l.067.022c.202.062.454.14.577.308l.028.038.045.014.398.12 2.01.63.195.07v-.286l-.106-.02.003-.007.103.001.01-.205.005-.05.008-.072.01-.053.002-.014c.028-.147.073-.248.148-.33l.068-.064c.13-.108.29-.18.567-.245.072-.01.16-.017.26-.017.127 0 .257.01.395.02.262.02.554.033.804 0a.46.46 0 0 0 .469-.401c.04-.267-.127-.594-.515-.7-.333-.09-.663-.09-.98-.09l-.015.001c-.558.057-.71.215-.916.466l-.048.055c-.047.047-.055.054-.193.126-.084.043-.16.07-.24.096-.11.036-.225.076-.35.16l-.107.098-.088.112-.02.027c-.097.137-.163.22-.273.22-.12 0-.213-.035-.286-.105l-.083-.08-.097.06c-.22.136-.594.03-.807-.213-.058-.066-.1-.137-.125-.208l.048.01.065.006h.02l.048-.002.07-.01.06-.015.005-.002.06-.022.01-.005.054-.027.054-.036.02-.016.05-.043.007-.007.042-.046.037-.035v-.012l.01-.017.01-.014.037-.067.008-.015c.02-.046.04-.104.017-.204-.02-.085-.095-.246-.245-.246l-.112.035a.51.51 0 0 1 -.241.064c-.256 0-.466-.22-.555-.427l-.04-.132c.282.122.583.09.84-.093.22-.115.22-.335.22-.496v-.103l-.1-.03c-.385-.12-.577-.232-.714-.754.365.2.73.2 1.058.2h.06l.043-.04c.19-.185.433-.242.595-.13.16.112.324.295.456.444.16.18.25.275.344.312l.016.007a.3.3 0 0 0 .13.034c.048 0 .135-.016.2-.12.075-.123.034-.307.02-.36-.047-.163-.167-.278-.3-.374a.54.54 0 0 1 .159-.022c.214 0 .346.01.476.06l.057.024.092.052.14.045.047-.007.102-.07c.032-.048.037-.108.016-.18l-.054-.147c.275-.02.45.058.55.25l.095.177.14-.145c.056-.057.1-.12.144-.178l.1-.128c.04.184.132.412.355.55l.222.137v-.256c0-.07.077-.282.15-.405a1.36 1.36 0 0 0 .127.265c.001.003.106.15.215.155.125 0 .18-.1.255-.24a1.67 1.67 0 0 1 .114-.19c.107.218.278.507.365.59l.057.054.077-.017.177-.044c.194-.048.41-.1.602-.116a1.12 1.12 0 0 0 -.252.777l.006.076.016.063c.06.176.207.275.337.364l.045.03c.072.048.145.098.2.154.152.187.183.256.185.424-.047.15-.212.266-.388.4-.093.064-.188.13-.27.207-.4.392-.1.986-.086.992l.094.127.092.072.09-.07 1.012-.748c.253-.198.6-.304.98-.304.106 0 .213.008.32.025.12.016.256.025.396.025.68 0 1.406-.202 1.406-.77 0-.344-.393-.827-.78-.827l-.104.013-.026.005-.022.015c-.138.1-.2.243-.273.377-.075.16-.127.26-.222.28l-.027.01c-.068.032-.23-.05-.4-.193l-.07-.063-.086.035c-.524.212-.924.08-1.224-.41l.01.001c.1.018.177.027.268.027.315 0 .604-.11.793-.3l.04-.04v-.056c0-.1-.064-.143-.094-.165-.033-.023-.1-.07-.23-.283l-.032-.055-.064-.012c-.266-.05-.598-.482-.652-.935.318.165.7.313 1.165.313h.06l.042-.04c.12-.114.12-.308.12-.402v-.088l-.08-.038c-.278-.13-.538-.208-.792-.235.207-.148.497-.235.805-.235.262 0 .492.067.602.172l.05.05.07-.01c.293-.034.517.05.628.225.087.136.087.312.002.47a.23.23 0 0 0 .004.22.25.25 0 0 0 .182.13l.098.01c.143 0 .268-.062.367-.176.135-.157.206-.42.2-.677.122.018.26.122.378.284l.01.01.074.117c.05.095.08.175.09.24l.02.118h.123a1.47 1.47 0 0 1 1.002.321.66.66 0 0 0 -.183.112l-.025.02c-.044.038-.16.14-.076.285l.01.014c.056.073.176.14.364.24l.193.107c-.05.047-.107.108-.107.195v.032l.015.03c.05.096.152.158.253.218l.09.055c-.105.025-.196.078-.196.2v.053l.036.04c.027.03.07.065.16.137l.42.367h-.001c-.19 0-.33.047-.424.144l-.07.07.045.088c.078.15.178.225.26.272-.056.02-.112.045-.157.1l-.018.016-.01.02c-.064.124-.004.255.06.395.044.098.094.206.098.307l-.006-.004-.054-.018c-.108-.032-.187-.003-.227.065-.056.09-.006.18.064.303.023.04.072.127.097.193a4.02 4.02 0 0 1 -.358-.158c-.284-.133-.576-.272-.947-.272-.057 0-.115.004-.174.01l-.056.008-.052.06-.052.092c-.067.135-.17.342-.518.37l-.088-.03c-.293-.202-.726-.415-1.063-.415a.62.62 0 0 0 -.258.052l-.04.02-.044.028-.044.034c-.213.186-.313.513-.384.808l-.032.14-.14.53c-.1.162-.298.295-.506.436-.32.216-.68.46-.86.897l-.006.016-.023.06-.082.234 1.24-.174.207-.004.862.073.54.148.48.246.285.24.253.34.018.034.02.036.015.03.02.044.063.156.012.042.014.042.023.086.01.045.055.393.005.217v.037c-.003.088.027.15.1.202v.003l.106.06.132.077.096.063.084.062.04.032.053.048.035.033.045.05.01.01.026.033.126-.07-.117.082.022.032.134-.06-.122.076.022.035.134-.054-.126.067.05.106.002.01.017.046.005.017.008.037.007.027.008.055.007.08v.07.025l-.004.053-.001.017-.012.07-.006.04c-.008.03-.028.13-.025.21v.004l.002.06.002.018.003.056.007.07.001.01.01.07.003.013.017.07.006.018-.04-.036c-.163-.145-.347-.3-.56-.3-.284 0-.486.267-.65.863-.08-.132-.203-.24-.34-.24l-.026.002-.035.006-.02.006c-.223.085-.4.336-.57.578l-.187.25.018-.13.002-.03.002-.026-.002-.06-.003-.027-.004-.03-.006-.024-.01-.03-.01-.026-.016-.028-.016-.02-.028-.03-.025-.02-.032-.018-.028-.014-.033-.01-.03-.007h-.03l-.085.008-.038.01-.03.01-.287.15-.04.026.064.128-.084-.114-.22.147.053.132-.07-.123-.014.008c.01-.092.02-.223-.106-.344l-.034-.032-.046-.007a1.77 1.77 0 0 0 -.258-.021c-.3 0-.525.084-.72.16l.005-.04c.002-.068-.024-.13-.066-.166l-.013-.01c-.07-.052-.16-.077-.257-.073.074-.113.132-.272.062-.487l-.008-.022-.04-.094-.012-.027-.017-.028-.02-.028v-.023l-.01-.013-.013-.014-.106.098.09-.11-.036-.03-.185-.1-.102-.034-.028-.007-.018-.003-.036-.01-.008-.001-.04-.006-.045-.004-.08-.004-.174.02-.036.01-.056.018-.058.027-.034.017-.014.01-.03.02-.018.012-.023.02-.052.05-.023.026-.012.016-.017.024-.018.026-.024.044c-.03.055-.03.118-.004.174.062.125.238.157.424.19l.01.002c-.086.112-.17.282-.05.574.052.2.308.337.63.51.402.216.85.456.918.81-.07-.015-.154-.04-.237-.064-.172-.05-.367-.108-.54-.108-.15 0-.267.043-.35.13-.063.066-.103.152-.12.26-.512-.35-.998-.5-1.44-.443l-.025.005c-.22.07-.403.248-.615.454-.25.243-.527.513-.906.63v-.485h-.144c-.262 0-.517 0-.698-.035.3-.033.546-.146.685-.53.12-.37-.257-.6-.692-.845-.302-.176-.645-.375-.897-.653l-.088-.097-.105.075c-.11.078-.232.21-.34.33l-.16.167h-.285l.2.232c.164.182.253.363.26.526.008.2-.077.38-.115.447l-.072.12c-.145-.06-.324-.093-.502-.093-.28 0-.478.083-.54.228-.018.04-.03.096-.013.16l-.108-.024-.045-.008c-.453 0-.966 0-1.315-.27l-.114-.1-.09.114c-.29.36-.742.634-1.155.7l-.045.007-.033.03-.04.04c-.1-.244-.306-.352-.615-.334m5.915-3.16c-.025.187.056.397.232.595.248.28.616.463.937.463.134 0 .257-.03.367-.1.23-.15.418-.34.6-.525.218-.222.445-.45.732-.604l.075-.04v-.082c0-.085 0-.174-.746-.395-.163-.05-.717-.205-1.044-.205-.772 0-1.148.29-1.152.884m1.288-1.58c.664.094 1.437.302 2.185.505 1.008.272 2.05.554 2.83.554.534 0 1.703-.265 1.703-1.05 0-.498-.182-.76-.52-1.074l-.02-.015c-.608-.396-2.163-.4-2.18-.4-.367 0-1.342 0-1.766.34l-.284.2a1.69 1.69 0 0 1 -.676.12c-.55 0-1.148-.157-1.726-.3-.555-.147-1.078-.285-1.544-.285-.032 0-.092.01-.145.07-.196.22-.306 1.483-.235 1.903l.007.044.256.25.087-.186c.23-.487.696-.735 1.387-.735.2 0 .415.02.64.063" fill="url(#e)"/><path d="m90.197 737.003h.002l.022.013-.024.004z" fill="url(#f)"/></g><path d="m-289.497 182.566a.4.4 0 0 1 -.184.049c-.098.004-.205-.03-.25-.007.027.104.302.078.466.078-.138.132-.302.132-.493.107 0 0 .004.027.052.05.104.04.24.062.33.084-.08.026-.165.08-.44.026.027.08.248.16.36.19-.084.052-.182.077-.248.077-.134 0-.53-.175-.652.086a.06.06 0 0 0 -.003.05l.024.048c.014.028-.007.073-.01.08-.04.09-.187.082-.262.032-.013-.01-.03-.022-.047-.06s-.026-.08.004-.117l.042-.007c.182.023.1-.188-.057-.14-.047.023-.077.068-.138.08-.008.001-.032.001-.048-.018-.054-.07-.053-.23.02-.247.023-.004.036.012.04.016.06.072.21-.006.17-.098-.008-.02-.02-.037-.03-.047-.047-.047-.17-.018-.123-.135.027-.055.084-.162.164-.162.07 0 .078.08.11.133.017.026.083.133.164.133.22 0 .385-.318.305-.532-.1-.292-.47-.185-.744-.236-.705-.106-.9-.52-1.33-1.044l-.04-.032c-.04-.017-.067-.013-.115.012l-.93.45-.195.08.222-.295c-.222.103-.385.265-.687.4-.026 0-.057 0-.057-.026.03-.077.084-.107.138-.266-.027-.025-.04 0-.08.026-.302.215-.47.4-.744.347 0 .05.11.158.275.214-.08.077-.356.052-.492-.03-.027.133.217.213.275.24-.138.107-.413 0-.55-.052-.027 0 0 .025 0 .025.08.16.412.185.55.185-.222.107-.44.162-.688.03-.058.078.218.236.275.266 0 .052-.302.026-.496-.133-.027.078.22.236.248.266-.108.105-.336.01-.413-.022l-.044-.02-.01.01c.028.107.165.162.276.214-.222.107-.386-.026-.47-.107-.053 0-.248.19-.248.214-.026.052 0 .107-.026.185-.023.048-.066.154-.097.162l-.03-.01c-.026-.03.01-.155-.038-.177-.248-.107-.222.133-.328.214-.11.05-.275-.133-.275-.188 0-.022.02-.087.08-.05l.03.02h.032c.05-.013.05-.053.05-.077a.09.09 0 0 0 -.138-.104c-.024.01-.026.05-.07.056l-.04-.004c-.08-.08-.08-.266-.027-.292.083-.026.1.078.19.05.057-.025.057-.185 0-.2-.05-.027-.126.063-.178.014l-.005-.04c.032-.1.107-.214.157-.214.072 0 .083.138.173.21a1.28 1.28 0 0 0 .122.071c.177.083.383.055.503.01.497-.214.275-.557.44-.64.358-.158.194-.318.332-.4.027.026.027.16.108.19.03-.162.056-.266.22-.214.053.08.11.158.19.214.03 0 .03-.19.03-.266.137.104.355.104.328.052-.026-.026-.138-.16-.138-.215.138.08.36.03.33-.026-.028-.025-.054-.052-.054-.078.026-.055.138-.055.19-.055 0-.107-.107-.24 0-.373.084.056.11.107.22.107 0-.078-.027-.184.027-.265l.607-.026c.355-.08.63-.213 1.016-.29l.3-.08c.152 0 .32.13.397.25l.116.196a1.44 1.44 0 0 0 .338.324c.11.08.22.185.275.317.056.088.075.2.12.304.024.053.08.143.147.177.283.144.537-.208.668-.083l.022.034.02.033a.09.09 0 0 0 .043.015 1.01 1.01 0 0 0 .492-.107c.03 0-.218.292-.492.322.054.05.44-.03.523-.082-.057.16-.274.266-.496.24l-.016-.003s.005.02.055.038c.104.023.3.042.374.042 0 .055-.413.055-.413.133.33-.052.36.055.496 0 .032.033-.022.084-.09.12m-.57.72c.004.04.01.125-.085.17 0-.132 0-.158-.11-.24-.024-.023.1-.004.178.04zm-1.1.303c.08 0 .164 0 .217-.052l.085.077c-.054.055-.276.055-.302-.026m-.195-.85c.03-.055.22-.188.33-.107-.026.026-.056.133-.056.133-.107-.055-.164-.055-.275-.026m-.44-.373c.057.025.124.11.138.133.02.033.025.1-.027.132-.11.052-.328.266-.11.506-.3-.056-.218-.266-.137-.454.013-.03-.01-.04-.028-.026-.2.185-.137.373-.22.53-.107-.133-.054-.347.03-.45 0 0-.008-.013-.03 0-.137.077-.218.318-.275.45-.098-.1-.015-.355-.002-.373 0 0 .002-.017-.024 0-.138.107-.19.266-.248.425-.108-.078-.08-.2-.08-.318-.08.05-.005.302-.202.368l-.033-.002c-.033-.024-.004-.048.014-.073.043-.06.054-.12.02-.168l-.076-.07a.44.44 0 0 0 -.299-.107c-.105.014-.25.104-.332.237-.024.033-.08.047-.138.03-.1-.03-.217-.214-.1-.295.058-.026.084.055.168.03.047-.025.053-.17-.038-.188-.027-.005-.05-.004-.08.007-.05.02-.077.07-.113.04l-.022-.036c-.018-.08.007-.248.114-.253.024 0 .037.02.042.03.022.037.043.055.066.055.117 0 .115-.078.095-.15-.004-.012-.013-.043-.04-.043-.057-.006-.14.026-.16-.02-.058-.078.053-.2.137-.2.107 0 .08.133.19.16.054.026.15.032.22.08.026.017.044.025.054.052.053.24.412.214.604.185.385-.052.606-.317.33-.5-.164-.108-.412-.03-.607-.056-.302-.052-.355-.185-.275-.4.024-.055.16-.087.195-.107s.19-.133.19-.077c-.05.07-.075.188-.123.29l-.01.042c.013.02.035.025.053.013.164-.16.164-.2.382-.343.084.184.306.184.358 0 .138.133.314.308.302.343-.028.107-.08.266-.08.4.013.102.137.147.218.188m-1.592.85a.51.51 0 0 0 .137-.21c.02-.035.074.006.107.026.084.052-.164.2-.244.185m-.855-1.008c.057-.08.194-.132.248-.055-.018.027-.026.073-.048.1l-.032.006c-.057-.026-.11-.052-.168-.052m-2.903 1.1c.04.01.078.084.08.116l-.014.024c-.044.043-.218.04-.268.017.077-.025.133-.077.185-.15zm-.105-.817c-.03-.004-.097-.03-.18-.007.056-.103.157-.107.24-.107l.008.007c-.004.02-.023.043-.043.08zm1.034-1.044-.013-.035c-.01-.01-.02-.01-.045.01-.248.16-.412.103-.443.103.275-.16.222-.184.36-.398-.054-.077-.22.107-.33.08.05-.023.075-.07.123-.16l.028-.062c.056-.13.15-.15.15-.15-.057-.052-.358.158-.358.158.082-.26.216-.315.246-.443l.001-.024-.006-.008-.032.012c-.188.198-.323.227-.457.227.03-.13.456-.21.494-.443l-.006-.015c-.03-.003-.085.087-.183.11-.084.025-.195.025-.22.025.1-.133.164-.158.275-.266-.11 0-.25.056-.36.056l-.007-.02.018-.018c.165-.124.348-.1.348-.258 0-.046-.02-.09-.065-.12l-.043-.012c-.09-.001-.25-.01-.22-.104.164.052.3-.03.244-.188-.048-.096-.143-.082-.24-.06-.033.01-.047 0-.052-.004-.07-.057-.018-.174.032-.198l.037-.013c.065-.02.115.068.162 0l.012-.04c.008-.155-.167-.087-.167-.16.027-.107.164-.162.248-.162.075 0-.04.14.103.16.023.003.06-.014.088-.04.095-.096-.054-.116-.053-.145.002-.097.204-.08.262-.038.03.016.065.07.025.107s-.086.086-.113.163c-.017.046-.085.637.006.886.013.034.023.042.03.05.053.05.125.036.172.085.084.077.305.45.275.476-.053.08-.138.133-.19.188 0 .05.085.05.138.078.026 0-.164.188-.275.24v.026c.084.08.19.026.275.08-.053.133-.084.133-.164.266.026.05.3-.026.355 0 .03.204-.41.238-.462 0m-.94-2.657c.083-.026.22.026.248.052.005.002-.015.022-.03.047-.023.035-.047.075-.053.06-.08-.16-.218-.133-.164-.16m.538-.127c-.024-.04-.05-.065-.1-.087.11-.025.222 0 .275.108-.042 0-.084.032-.128.02-.024-.006-.037-.024-.047-.04m1.36 1.03c.084.052.11.133.138.185v.107c0 .026-.054.026-.084.026-.328.133-.218.48-.63.7h-.028c.276-.24.245-.742.604-1.008m-.026-.055c-.248.16-.248.4-.523.347l-.005-.018c.306-.255.285-.41.472-.488 0 .052.03.107.056.158m0-.45c-.027.077-.027.107-.084.2-.218.056-.164.295-.44.347-.03.005-.046.002-.054 0 .054-.318.356-.506.577-.557m-.413.017c.085-.098.256-.16.33-.193l.038-.01c.043.004.046.03.07.055l.007.048c-.006.03-.018.036-.023.038-.084.044-.217.024-.397.072-.026.01-.037.003-.027-.008m.054-.283c.084-.055.164-.08.275-.107v.107c-.08 0-.19.026-.302.052-.038.008.002-.04.027-.052m.36-.29c-.027.026-.056.078-.084.103-.08 0-.164-.026-.248-.077.22-.16.358-.055.332-.026m.275-.03c-.027.03-.058-.052-.195 0-.026 0-.054 0-.107-.052-.044-.047-.057-.026-.11-.108.164 0 .302 0 .413.16m.275.08h-.165c-.057-.108-.137-.214-.168-.347.222.055.333.24.333.347m.274-.133c-.026.08-.057.133-.084.214-.002.02-.027-.03-.11-.055-.08-.158-.107-.266-.138-.45a1.15 1.15 0 0 1 .332.292m.386-.16.067-.004.07.004c0 .026-.013.037-.03.052-.138.108-.275.24-.355.373h-.138c.027-.158.11-.398.386-.425m.096.2c.042-.014.206-.058.236-.06.1-.001.188.037.272.018.024-.006.026 0 .026 0-.053.08-.138.052-.274.08a.51.51 0 0 0 -.412.236c-.054 0-.054-.026-.08-.026.06-.154.12-.21.233-.25m.56.067c-.025.072-.073.17-.15.183l-.045.006c-.123.018-.23.003-.356.103-.027 0-.027-.026-.054 0s-.097-.04-.084-.052c.275-.266.412-.214.66-.266 0 0 0 .026.027.026m0 .343c0 .018-.027.03-.027.03-.1.052-.19-.03-.3.026-.03.02-.027-.026-.054-.055-.03 0-.092-.026-.084-.026.165-.077.302-.107.466.026m-.3.72c-.054-.133-.138-.24-.25-.32.168-.025.168-.052.168-.052a.29.29 0 0 1 .245.159c.084.292.03.454.137.878-.164-.026-.218-.48-.3-.664m-.33-.16c-.026 0 .027-.107.027-.107.027-.026.054 0 .084.025.275.24.137.7.412.93.027.052-.168 0-.22-.08-.164-.236-.084-.425-.302-.768m-.164.21c.027 0 .027 0 .054-.026s.053-.108.053-.08c.11.107.195.32.195.532.053.24.164.32.137.32a.62.62 0 0 1 -.222-.133c-.054-.107-.054-.29-.218-.612m-.195.132c-.026 0 .11-.052.138-.077.084.133.138.318.138.476.057.16 0 .347-.027.48-.19-.158-.11-.424-.164-.638l-.084-.24m-.713-.77c0-.025-.027-.103.053-.133.03 0 .058-.026.084-.05.028 0 .054.05.084.08-.03.078-.1.133-.084.21 0 0 .028.025.054.025.057-.025.1-.052.137-.133h.03s.028 0 .028.03-.028.077-.028.103c-.03.056-.11.08-.137.108s-.084.025-.084.055c.028.052.054.078.084.104s.053 0 .08 0c0 .03-.027.055-.027.107-.027 0-.084-.025-.1-.025-.028-.026-.054-.052-.054-.08s0-.077-.027-.104h-.084c-.027.026-.027.026-.027.052s0 .052.027.052c.053 0 .053.055.084.08.027.052.107.052.053.107-.026 0-.026.026-.053.052-.03 0-.03-.026-.03-.052l-.163-.265c.026-.108.084-.214.1-.322m.496-.025c-.084-.026-.332-.266-.36-.266 0 0-.022.09-.128.105-.01.002-.04.008-.06-.01-.06-.045-.076-.17-.012-.243.01-.015.063-.026.086-.025.044.001.08.025.115.095.11 0 .25.026.33.077.058 0 .084.056.084.108-.026.05-.026.133-.053.158m.493.025c-.08-.025-.33.08-.44 0 .027-.077.1-.2.22-.2.08-.025.218.078.244.16 0 0 .03 0 .057-.026.054 0 .11 0 .164.052.027.025.027.056 0 .107-.026.026-.137.133-.19.026-.03-.026 0-.077-.057-.108m-.493.322c.027.05.053.077 0 .107 0 0-.03.026-.03 0l-.08-.08c-.058-.052-.11 0-.165 0v-.052c.137-.03.19-.132.244-.24h.03c.027.025-.084.158 0 .266m-.275.582c.053-.077.107-.343.137-.29.107.214-.137.48-.194.45-.054 0-.11-.318.057-.477 0-.026.026 0 .026 0-.026.107-.057.21-.057.317zm.44-.424c-.026 0-.026 0-.057.025 0 .08-.217.026-.245 0v-.107c.028-.026.054.08.107.08.058.025.058 0 .11-.052.027 0 0-.03 0-.03-.053-.077-.08-.2-.027-.318h.054c.057.052 0 .16.057.185.027.03.053.056.08.056.084-.026.03-.108.057-.19.027-.025.08-.077.164-.077 0 .025 0 .052.027.077 0 .03.083.056.026.08-.053.08-.08.185-.107.29-.058.08-.274.16-.443.266-.027-.025 0-.077-.027-.158.058 0 .11 0 .164-.026.03 0 .1.026.138-.026 0-.055-.028-.107-.08-.08m-1.57 1.46c.306-.214.386-.424.607-.664 0 .106 0 .29-.1.45s-.386.19-.497.214m.8.317c-.054.056-.08.056-.138.163 0 0-.08-.214-.027-.32.027-.026.084-.078.11-.133.026.08.026.214.054.29m-.054-.424c-.027.133-.332.454-.66.4.798-.476.465-.875.66-1.17.054-.026.08-.104.164-.104 0 .104.084.158.053.2-.08.16-.19.48-.217.664m.275.664c-.164-.158-.195-.53-.195-.742.03-.132.084-.427.168-.56 0 0 0 .03.027.03.08 0 .08-.03.164-.08 0 .505-.3.424-.164 1.354m.275-.107c-.195-.026-.25-.29-.195-.61.03-.24.168-.4.137-.7.03 0 .084-.08.084-.133.19.398-.19.9.138 1.22-.19.052-.248-.188-.248-.133-.027.107.027.24.085.343m.355-.424c-.138-.107-.164-.16-.218-.292-.027-.24.08-.48-.027-.715 0-.03-.058-.08 0-.08.053-.026.107-.052.138-.08.107.107.107.454.107.56-.028.236-.08.344 0 .61m1.02-1.513c0 .026 0 .026-.026.026s-.084-.026-.1-.133-.138-.184-.248-.214c.027-.052 0-.103 0-.158.084-.026.164-.026.22.025.08.056.027.19.138.4 0 .03.026.03.026.055m.027.21.026-.026c.138.29.47.32.772.265.55-.077 1.3-.372 1.76-.372.164 0 .55.08.55.32 0 .16-.056.24-.168.344-.164.107-.576.133-.74.133-.12 0-.454 0-.6-.108-.02-.015-.1-.073-.113-.08a.65.65 0 0 0 -.259-.047c-.386 0-.825.2-1.154.2-.057 0-.11-.476-.084-.638m1.32-.266c0 .03-.412.162-.58.162-.302 0-.355-.133-.355-.266-.026-.162.275-.398.466-.295.165.108.275.295.47.4m-1.072-.476c.164-.158.466-.24.466-.398.025-.203-.194-.23-.218-.24.08-.052.276.025.33.133.027.025.027-.185-.026-.292 0 0 .022-.001.058.02.216.156.213.36.133.5-.008.02.035.057.057.026.104-.208.367-.186.56-.26l.024-.005.018.024c-.05.024-.08.073-.104.1l-.004.018c.007.014.03.014.055.014.356 0 .55-.158.577-.133 0 .026-.058.16-.577.292-.11.162.08.296.054.32-.138.025-.22-.056-.22-.188 0-.023 0-.025-.018-.026l-.02.015c-.137.187.127.44.313.5v.026s-.043.008-.08 0c-.558-.103-.447-.53-.915-.51-.013.001-.05.002-.075.01-.138.043-.334.193-.384.366a.39.39 0 0 0 .217.398c.386.107.687-.078 1.02-.21.164.052.33.026.413-.055 0 0-.11-.026-.137-.078l.046-.003c.178-.03.255-.085.23-.292.138 0 .274.163.3.214.084 0-.053-.24-.084-.29.168.052.305.077.386.266.083 0-.053-.347-.028-.32.275.133.25.373.275.347.084-.107.027-.214.054-.29.164.075.3.18.228.332l-.002.026.023.014c.058 0 .138-.162.138-.188.084.107.138.24.084.347-.01.02-.022.024-.025.04l.006.018c.024.017.052.002.073-.006.137-.077.11-.24.195-.29.076.28.03.437-.238.52-.048.015-.068.036-.068.036.03.133 0 .266-.054.374-.084.213-.248.29-.44.372-.274.107-.825.077-1.046-.08-.038-.03-.053-.052-.08-.078.356.103 1.29.16 1.455-.346.138-.347-.19-.583-.466-.613-.576-.052-1.072.188-1.76.4-.328.08-.91.055-.91-.4-.027-.185.03-.343.195-.476m1.73 4.277c0-.052.084-.214.168-.214 0 .055.027.107.053.162.027.026-.164.026-.22.052m-2.75-.214c-.137 0-.164.03-.244.055 0-.052.148-.174.23-.162l.013.014c0 .042.002.045.03.093zm-.053-.45c.002.023-.013.02-.035.01l-.04-.016c-.072-.02-.122-.018-.175.006.028-.08.165-.133.25-.107.027.005-.027 0 0 .107m-3.135.305-.02.006c-.065-.02-.1-.015-.196.036.026-.107.19-.162.217-.133zm.166-3.64-.01.016c-.078.01-.155-.187-.13-.216.03 0 .03.08.168.108 0 .022-.022.065-.028.093m8 3.017c-.058 0-.168.026-.222-.03.054-.103.137-.078.137-.133-.026-.026-.083-.026-.1-.052-.026-.05.084-.158.057-.265-.03-.026-.053-.01-.084 0-.084.026.11-.16.026-.214-.19.055-.328.188-.55.162-.025-.028-.05-.172-.242-.187-.01-.001-.033-.001-.064.02-.12.08-.334.186-.436.11-.072-.05-.108-.17-.132-.27-.013-.054-.045-.217-.067-.252-.102-.162-.397-.226-.488-.487.5.103 1.445.103 1.428-.785l.018-.032c.077-.048.358-.168.29-.48a.31.31 0 0 1 -.007-.065c.001-.064.007-.128.046-.19.017-.024.038-.042.038-.042-.137-.106-.355.516-.518-.14-.002-.016-.03-.058-.06-.048 0 .055-.065.147-.11.133-.138-.052-.25-.373-.36-.343.03.126.054.225-.015.235h-.024c-.104-.03-.182-.13-.29-.156-.027.056.026.108-.027.16-.195.03-.302-.05-.412-.078 0 .024.022.047.026.092l-.008.022c-.05.037-.118 0-.15-.006l-.01.01c-.003.045.112.095.072.22-.01.036-.023.053-.03.06-.06.068-.268.118-.34-.024-.03-.055.165-.055.19-.082-.026-.05-.11-.08-.054-.214.027-.133.576-.236.55-.53-.11-.026-.47.214-.443-.103-.027 0-.036.007-.04.01-.136.1-.32.2-.51.174-.164-.052-.3-.347-.603-.4v.185c-.19 0-.36 0-.385.107.164 0 .275 0 .332.16s-.332.24-.55.48c-.07-.05-.168-.185-.195-.185.063-.07.1-.145.104-.216a.36.36 0 0 0 -.047-.183c-.02-.036-.03-.056-.058-.08-.138.08-.44.052-.3-.08-.027 0-.054-.026-.138 0-.164 0-.358 0-.496.107a.75.75 0 0 0 -.44-.266c-.027-.025-.054-.05-.08-.05-.03.133-.1.158-.248.133 0 .05.027.107.027.132 0 0-.138-.055-.302 0-.084 0-.164-.025-.194-.025 0 .025.084.077.084.103-.027.133-.19.162-.248.214.058.05.084.05.1.107.02.03-.164.185-.192.2.054.03.178.05.165.08-.057.107-.195.184-.195.317.03 0 .058-.025.11 0a1.32 1.32 0 0 0 -.181.368c-.012.027.005.047.018.053l.025.007a.38.38 0 0 1 -.053.185c-.058.052-.275-.318-.275-.583 0-.56.11-.454.11-.56 0-.133-.138-.103-.195-.184-.11-.185-.412-.24-.55-.108.084.026.138.026.195.133.026.055-.03.055-.03.107-.053 0-.08.026-.107 0-.11-.08-.358-.185-.523 0 .13.025.262.1.297.244v.034c-.06.133-.243-.094-.243-.094-.076.102-.08.348.085.418l.04.005c.053-.01.028.06.07.095l.05.023c.043.01.098-.003.14-.008.02-.002.037.004.05.014.024.02.023.04-.004.07l-.036.027c-.05.016-.1-.006-.15-.006 0 0-.013.1.037.153s.123.087.21.087c.054 0 .054.08.027.107-.164.107-.302.133-.385.318.083-.025.164-.025.164.026 0 .08-.054.107-.108.162 0 0-.03 0-.03.026.057.026.138-.026.168.026.053.052-.195.184-.168.292.11-.026.248-.052.275.08 0 .077-.054.158-.138.2.1 0 .22-.052.248 0 .026.03-.164.133-.164.24.084-.025.137-.052.22-.025.054.107-.195.184-.22.184.084.133.44.107.603.03.057.236.36.236.36.266-.084.077-.164.236-.138.317.027.24-.1.45-.385.45-.164 0-.328-.026-.385-.185s-.164-.158-.275-.08c-.164-.078-.382.055-.44.214.1-.025.44.08.248.266-.137 0-.275.08-.3.318.603-.16.522.214.11.32.244.2.355.133.576.052.04-.02.054-.008.08 0 .17.07.17-.142.222-.18.023-.02.054-.012.072-.004l.02.02c.034.116-.062.164-.007.19.18.028.3-.203.327-.387l.024-.062c.03-.034.074-.082.115-.082.11-.026.22.188.66.055 0-.026-.058-.08-.027-.107l.244-.08c.084-.078.22-.052.306-.133-.03 0-.084-.026-.084-.052.028-.026.19-.026.164-.08 0 0-.027 0-.054-.026-.057-.026.386-.21.386-.265-.03 0-.168-.16-.11-.185.08-.025.2-.055.248-.133l.852-.266c0 .185.02.28.098.347.056.05.12.078.23.104.164.026.332-.026.523 0 .164 0 .164.24-.026.29-.11.03-.222.03-.332.03-.198-.02-.23-.077-.302-.162-.026-.025-.026-.028-.088-.06-.076-.04-.135-.04-.203-.087s-.095-.17-.202-.17c-.068 0-.1.026-.137.052a.3.3 0 0 0 -.413.266c.074-.048.2-.05.262.076.005.01.01.02.004.043s-.028.06-.047.043c-.248-.133-.44.21-.355.292.08-.055.19-.08.3 0 .054.026.054.078.054.133-.164.052-.248.107-.302.373-.004.044.026.026.026.026.138-.107.276-.107.413-.107.084.08.195.107.276.052.115-.08.222-.242.272-.262.02-.008.04-.022.06.008s.001.09.001.09c-.017.06-.078.1-.138.14 0 .026.053.063.137.063.107 0 .17-.006.248-.056l.027-.007s.012.001.005.026c-.008.04-.056.107-.035.107.137.026.248 0 .305-.107.054.056.08.133.165.163 0-.08.026-.188.11-.24 0 .052.08.266.137.21 0-.02.03-.095.055-.135l.034-.03c.03-.002.083.193.155.166.03-.077.1-.21.138-.236.11.025.275.077.386.052-.11-.133-.138-.185-.138-.318 0-.107.14-.137.2-.212s.076-.11.076-.187c-.027-.107-.164-.162-.248-.24-.107-.107-.028-.278-.02-.292l.02-.03.36.266c.138.107.328.133.496.107.19-.026.577 0 .577.214 0 .107-.138.266-.25.24-.084-.055-.084-.214-.19-.24-.057-.026-.137.025-.194.077-.19-.077-.385-.052-.523.214 0 .052.057.025.084.025.11-.025.248 0 .328.08 0 .026-.026 0-.107.133-.138.026-.275.24-.275.424.004.025 0 .026.026.026.138-.077.275-.133.44-.133.027.026.027.08.027.107a.76.76 0 0 1 -.328.082c-.026.003-.022.034 0 .052.164.16.492.16.604.05.247.03.36-.158.274-.317-.012-.023.007-.05.027-.052.137-.03.195.158.168.29.144.048.284-.156.302-.265.164 0 .275-.026.466-.188-.043 0-.106-.017-.143-.05-.022-.02-.038-.028-.026-.047.027-.036.18-.097.225-.14 0-.03-.057-.055-.057-.08.026-.052.164-.08.164-.16 0 0-.108 0-.108-.026.026-.03.218-.162.276-.266" fill="#231f20" fill-rule="evenodd"/><g fill="#00adef"><path d="m-293.15 183.033c-.034-.02-.086-.06-.107-.026a.5.5 0 0 1 -.137.21c.08.026.328-.133.244-.185m-3.473-4.377c.01.016.023.034.047.04.044.012.086-.02.128-.02-.054-.108-.164-.133-.275-.108.05.022.077.047.1.087m5.593 3.98c-.1-.08-.3.052-.33.107a.31.31 0 0 1 .275.026s.03-.107.056-.133m-5.968-3.694c.006.014.03-.026.053-.06.017-.025.036-.045.03-.047-.027-.026-.164-.077-.248-.052-.054.026.083 0 .164.16"/><path d="m-294.905 179.712c-.168.16-.1.477-.057.477.057.03.3-.237.194-.45-.03-.052-.084.214-.137.3h-.03c0-.107.03-.2.057-.317 0 0-.026-.026-.026 0m.78 3.292c-.084-.012-.23.1-.23.162.08-.025.107-.055.244-.055h.03c-.028-.048-.03-.052-.03-.093zm-3.073-.634c-.083 0-.185.004-.24.107.083-.022.15.004.18.007l.025-.026c.02-.038.04-.06.043-.08zm.047.93-.016.008c-.052.073-.108.125-.185.15.05.025.224.026.268-.017l.014-.024c-.002-.032-.04-.106-.08-.116"/><path d="m-294.05 182.256c.023-.028.03-.074.048-.1-.053-.077-.2-.026-.248.055.058 0 .1.026.168.052zm-3.467.75c.097-.05.13-.055.196-.036l.02-.006v-.1c-.027-.03-.2.026-.217.133m3.354-.455c-.084-.026-.22.026-.248.107.053-.024.102-.026.174-.006l.04.016c.02.01.037.014.035-.01-.027-.107.027-.102 0-.107m-3.11-3.428c-.026.03.05.225.13.216l.01-.015c.007-.028.028-.072.028-.093-.137-.026-.137-.108-.168-.108m6.105 4.465c.027.08.248.08.302.026l-.084-.077c-.054.052-.137.052-.218.052"/><path d="m-291.194 183.1c-.084 0-.168.162-.168.214.057-.026.248-.026.222-.052-.027-.056-.054-.108-.054-.162m1.11.15c-.068-.046-.2-.065-.178-.04.1.08.1.107.1.24.096-.044.1-.13.085-.17z"/></g><path d="m-291.546 172.596c-.492.028-.724-.292-1.15-.3-.175-.003-.43.045-.743.297-.315-.252-.568-.3-.743-.297-.427.008-.66.328-1.15.3-.067-.004-.13-.014-.185-.026v1.67c.055.013.117.023.185.026.492.028.724-.292 1.15-.3.174-.003.426.045.74.293v.007l.004-.004.005.004v-.007c.313-.248.565-.296.74-.293.427.008.66.328 1.15.3.067-.004.13-.014.185-.026v-1.67c-.055.013-.117.023-.185.026" fill="#e6f7fd"/><g fill="#a89f19"><path d="m-295.87 174.4h2.62v.188h-2.62z"/><path d="m-295.677 174.6h-.195v-2.036h.195zm4.67-.2h-2.62v.188h2.62z"/><path d="m-291.2 174.6h.194v-2.036h-.194zm-4.997-.644.335-.187v.375z"/><path d="m-296.197 173.196.335-.187v.375zm5.515.75-.336-.187v.375zm0-.75-.336-.187v.375z"/></g><path d="m-291.36 172.392-.04.01a.94.94 0 0 1 -.154.022c-.22.012-.38-.06-.553-.138s-.35-.158-.584-.162h-.02c-.24 0-.485.084-.727.25a1.28 1.28 0 0 0 -.727-.251h-.02c-.235.004-.412.084-.584.162s-.334.15-.552.138a.93.93 0 0 1 -.154-.022l-.04-.01v.084l.022.005a.99.99 0 0 0 .169.024c.24.014.412-.064.593-.146.163-.074.333-.15.55-.154h.018c.23 0 .467.085.702.253l.025.018.025-.018c.235-.168.47-.253.702-.253h.018c.217.004.386.08.55.154s.326.147.538.147l.055-.001c.056-.003.113-.01.17-.024l.022-.005z" fill="#db3921"/><g fill="#231f20"><path d="m-287.193 171.716h-12.492v12.625c0 .53.31 1.013.802 1.248l5.444 2.6 5.44-2.58c.493-.234.805-.72.805-1.25zm-.278.27v12.373c0 .425-.255.82-.65 1.008l-5.318 2.522-5.32-2.54c-.4-.19-.647-.576-.647-1.007v-12.356h11.936"/><g fill-rule="evenodd"><path d="m-293.628 190.33-.38-.004-.026-.025c.035-.04.067-.078.07-.126l-.001-.35c-.003-.036-.043-.067-.077-.112h.02l.378.007c.037-.003.072-.008.095.02 0 .05.032.095.016.138-.056.014-.055-.037-.08-.06-.07-.042-.157-.042-.23-.035-.015-.006-.022.01-.012.03l-.006.15c.067.006.15.02.186-.034.02-.008.02-.008.035-.003.02.042-.003.05.008.07.004.034.006.07-.02.093-.03-.012-.038-.08-.096-.068-.035.004-.065-.007-.107.01-.008.065-.02.144.001.22.05.05.188.053.246-.01.027-.025.035-.087.07-.093l.02.042c-.023.06-.043.152-.115.158m.447-.023a.32.32 0 0 1 -.12-.011c-.01-.02.01-.03.034-.037.057-.1.03-.345.028-.516-.032-.012-.1.01-.138.035s-.023.058-.065.078c-.047-.017-.01-.072-.018-.1.012-.03.002-.05.008-.066.01-.03.4-.01.53-.008.053.001.03.06.04.08.003.037.022.077-.02.097-.047-.017-.035-.05-.06-.074-.02-.04-.086-.048-.124-.045-.03-.01-.026.023-.026.023-.015.132-.02.317.001.444.004.034.05.05.054.085-.027.026-.074.008-.125.007m-1.2-.98c-.048-.005-.1.055-.106.1l-.144.232c-.058.106-.098.236-.22.27-.07.014-.094.033-.14.007-.16-.018-.4-.157-.4-.293-.01-.114.074-.217.132-.323s.163-.207.135-.35c-.02-.024-.042-.026-.018-.046.003-.022.047-.017.067.007.046.028.136.06.177.1.02.024.1.032.063.073-.05.016-.12.034-.15.074-.1.144-.175.297-.238.446-.03.066.03.138.07.2a.57.57 0 0 0 .2.066c.165-.004.268-.287.33-.415.03-.062.064-.15.03-.244-.02-.024.002-.022.002-.022l.245.092c-.003.025-.005.047-.028.044m-.9-.435c-.126.077-.214.224-.275.352a1.3 1.3 0 0 0 -.15.278c-.028.02-.03.04-.056.06-.022-.002-.067-.007-.1-.032 0 0-.02-.024-.017-.046-.017-.05-.02-.228-.023-.387a3.81 3.81 0 0 1 -.033-.317c-.02-.027-.012-.092-.037-.073-.084.103-.114.17-.178.297-.033.087-.1.194-.076.26.02.024.04.052.014.07s-.067-.007-.1-.032a.39.39 0 0 0 -.154-.064c.005-.043.027-.04.053-.06.095-.014.136-.167.192-.23.06-.128.088-.17.15-.274.025-.02.053-.064.033-.087-.068-.03-.117.008-.165.025-.026-.003-.048-.005-.023-.025.002-.02.03-.04.078-.057s.123-.055.2-.025.132.06.127.105c.07.2.07.4.07.593.016.05-.008.068.008.114.084-.103.12-.212.177-.318.01-.1.072-.196.01-.268.003-.022.025-.02.025-.02.113.035.2.087.287.144-.002.022-.024.02-.047.017"/><path d="m-296.715 188.705c-.044-.005-.156-.04-.2-.087.06-.084.16-.143.236-.22.02.024-.034.287-.037.31m.15.514-.264-.12c-.026-.003-.045-.026-.02-.046s.048.005.048.005c.1-.058.086-.15.096-.24-.084-.053-.194-.11-.262-.142-.08.082-.14.188-.127.28-.028.04-.067-.007-.092-.01l-.13-.083c-.022-.002-.044-.005-.065-.03.028-.04.067.007.12-.03.204-.16.362-.32.524-.483.025-.02-.068-.03-.113-.034s-.075.035-.095.01l.002-.022c.1-.058.224-.1.333-.054s.116.194.103.306l-.063.53c-.006.047.012.092.03.14 0 0-.002.02-.025.02"/><path d="m-297.064 188.13c-.045-.03-.065-.054-.112-.038-.054.04-.114.17-.144.235l-.185.36c-.002.022.04.073.012.114l-.048-.005c-.062-.05-.13-.083-.198-.113-.02-.024-.042-.027-.017-.046.05-.016.145-.053.18-.14l.204-.36-.022-.002c-.2.1-.377.227-.558.367-.025.02-.044-.005-.044-.005-.01-.114-.001-.182.022-.383-.02-.024.007-.247-.017-.27-.077.083-.14.2-.177.32-.053.063-.114.17-.054.263 0 0-.003.025-.025.022-.087-.057-.177-.088-.265-.142l.003-.025c.117-.01.206-.156.286-.237.058-.107.142-.2.202-.338.002-.022-.065-.054-.087-.056-.042-.026-.096.014-.143.03-.02-.024-.017-.05.005-.046.052-.06.15-.096.24-.06s.175.107.2.177l-.018.54-.003.022c.204-.134.385-.296.556-.346.118-.01.16.018.18.045.046.027.065.05.063.073s-.025.02-.028.044m8.623.167-.458.233c-.022.002-.05-.015-.05-.015.016-.068.03-.135-.001-.195l-.238-.422c-.028-.04-.097-.054-.167-.086-.003-.024.018-.026.018-.026l.46-.23c.043-.027.082-.056.128-.038.032.06.103.095.1.157-.058.052-.1-.01-.137-.025-.113-.007-.217.05-.3.102-.022.003-.02.026.006.044l.093.183c.085-.035.192-.07.2-.158.02-.023.02-.023.04-.026.052.038.03.062.057.08.028.038.055.08.04.124-.046.006-.1-.074-.16-.02-.04.026-.083.032-.123.08.033.083.072.186.148.263a.27.27 0 0 0 .29-.166c.016-.047-.017-.126.022-.156.024-.003.052.04.052.04.012.085.05.2-.032.262"/><path d="m-289.33 188.718a.42.42 0 0 1 -.15.06c-.024-.018-.006-.042.016-.065.001-.153-.195-.428-.3-.63-.046.006-.126.08-.14.126s.012.083-.025.132c-.067.01-.058-.08-.08-.097-.006-.044-.03-.062-.034-.083-.005-.04.456-.253.624-.338.064-.032.075.054.1.07.028.042.076.078.04.127-.067.01-.073-.036-.12-.05-.048-.036-.134-.004-.177.023-.042.006-.016.044-.016.044a2.6 2.6 0 0 0 .296.526c.027.038.094.03.12.068-.015.047-.082.056-.144.085m-.572.254-.702-.387c.094.183.14.37.318.5.006.044.067.016.05.06-.018.023-.085.032-.104.055-.068.01-.1.08-.13.017.04-.176-.092-.333-.158-.495a.92.92 0 0 0 -.09-.162c-.086.01-.116.123-.13.2-.02.024-.07-.014-.092-.012-.027-.04-.075-.074-.14-.045l-.2.087a1.24 1.24 0 0 0 .124.245c.003.02.022-.003.022-.003.085-.032.15-.064.162-.13h.02c.048.036.08.077.1.136-.046.006-.07-.012-.1-.01-.064.03-.13.037-.2.1a1.51 1.51 0 0 0 .147.26c.028.042.1.01.158.001.126-.058.172-.193.155-.32.024-.003.043-.03.046-.006.05.057.06.12.1.18.006.045.034.062-.012.068l-.46.233c-.046.006-.064.03-.103.055-.025-.017-.022.003-.025-.017-.024.003-.003-.02-.006-.044.023-.153-.06-.25-.152-.454-.027-.038-.12-.22-.187-.213-.022.002-.02.023-.016.044l.006.044c-.025-.02-.067-.016-.1.014l.003.02a.53.53 0 0 0 .102.245c.08.118.13.286.275.375.024.018.003.02-.016.044-.064.032-.152.043-.2.093-.052-.036-.012-.085-.018-.127-.012-.086-.045-.147-.1-.224a1.24 1.24 0 0 0 -.127-.266c-.016.044-.03.1-.022.153-.001.153-.005.303.02.474 0 0-.02.003-.018.023-.022.003-.046-.015-.048-.036-.146-.1-.356-.302-.522-.4 0 0 .01.065.03.062.087.163.132.307.238.443.03.04.075.056.12.07-.022.003.003.02-.02.024-.04.03-.06.032-.103.058-.043.006-.102.076-.128.037.052-.114-.035-.253-.068-.336l-.18-.346-.024.003c-.04.03-.03.1-.044.16-.02.024-.02.024-.043.026-.006-.04-.015-.106.004-.15-.01-.065.025-.135.1-.164s.168-.064.222-.007c.15.113.254.23.4.317l.018-.023a2.58 2.58 0 0 1 -.016-.43c-.01-.065.007-.133.086-.185.02-.024.086-.032.134-.017.02-.023.055-.073.077-.075l.483-.233.02-.003c.027.04.033.083.08.077.015-.047.01-.088.046-.138.06-.07.187-.108.284-.058.162.045.46.265.577.295l-.18-.325c-.05-.035-.105-.115-.175-.127-.02.003-.024-.018-.024-.018.085-.032.168-.088.25-.12.05.014-.012.068-.007.1.045.168.132.307.195.45.055.06.1.142.118.2.024.02-.08.077-.104.06"/></g><path d="m-294.822 173.345c0 .1-.086.142-.172.142a.23.23 0 0 1 -.168-.075l.001-.014.042-.045h.016c.034.03.067.047.11.047s.075-.022.075-.056c0-.085-.236-.06-.236-.216 0-.084.073-.134.155-.134.06 0 .112.025.152.064v.014l-.04.046-.015.002c-.035-.026-.06-.038-.095-.038s-.063.02-.063.05c0 .084.236.05.236.216"/><path d="m-294.27 173.403v.014c-.044.042-.104.07-.173.07a.25.25 0 0 1 -.255-.247.25.25 0 0 1 .255-.248c.068 0 .13.027.173.07v.014l-.047.05-.015.001c-.03-.025-.067-.04-.112-.04-.086 0-.155.066-.155.156s.068.155.155.155c.046 0 .083-.016.112-.04l.015.001z"/><use xlink:href="#g"/><path d="m-293.563 173.405v.062l-.01.01h-.262l-.01-.01v-.46l.01-.01h.26l.01.01v.062l-.01.01h-.175v.108h.174v.062l-.01.01h-.164v.123h.175zm.567-.395v.46l-.01.01h-.087l-.013-.007-.2-.325v.322l-.01.01h-.076l-.01-.01v-.47h.01.087l.013.007.2.326v-.322l.01-.01h.076zm.472 0v.062l-.01.01h-.107v.387l-.01.01h-.075l-.01-.01v-.387h-.108l-.01-.01v-.072h.01.312z"/><use x="1.734" xlink:href="#g"/><path d="m-291.87 173.307-.065-.187-.065.187zm.147.17h-.08l-.012-.008-.03-.083h-.184l-.03.083-.012.008h-.08l-.008-.012.172-.46.012-.008h.07l.014.008.172.46z"/></g><g fill="#fff"><use xlink:href="#h"/><use x="-.01" xlink:href="#h" y="8.466"/><use x="4.702" xlink:href="#h" y="4.368"/><use x="-4.673" xlink:href="#h" y="4.368"/></g></g></svg>